<svg width="868" height="698" viewBox="0 0 868 698" fill="none" xmlns="http://www.w3.org/2000/svg">
<g filter="url(#filter0_d_92_798)">
<mask id="path-1-inside-1_92_798" fill="white">
<path fill-rule="evenodd" clip-rule="evenodd" d="M20 35.7273V86L20 503.203L20 642.758V648V664.177H58.8531L61.1385 666.762L67.995 659.745L72.185 664.177H128.56L133.512 659.745H160.938L169.318 668.608H197.505L201.695 673.04L212.361 662.699H274.63L277.116 660.114L279.401 662.699H391.009L397.484 656.052L409.292 668.239H419.577L424.332 664.154H434.433L434.433 664.177H473.205L475.485 666.762L482.327 659.745L486.509 664.177H542.766L547.707 659.745H575.076L583.438 668.608H611.567L615.748 673.04L626.392 662.699H688.531L691.012 660.114L693.292 662.699H804.667L811.129 656.052L822.912 668.239H833.175L837.92 664.154H848V648V642.758V503.203V230V85.0001H216V16H40.4967L20 35.7273ZM691.012 660.114L687.21 656.052H694.813L691.012 660.114ZM277.116 660.114L273.307 656.052H280.925L277.116 660.114ZM218 83H230.353H253.824H407V16H237.765L218 34.8818V83Z"/>
</mask>
<path fill-rule="evenodd" clip-rule="evenodd" d="M20 35.7273V86L20 503.203L20 642.758V648V664.177H58.8531L61.1385 666.762L67.995 659.745L72.185 664.177H128.56L133.512 659.745H160.938L169.318 668.608H197.505L201.695 673.04L212.361 662.699H274.63L277.116 660.114L279.401 662.699H391.009L397.484 656.052L409.292 668.239H419.577L424.332 664.154H434.433L434.433 664.177H473.205L475.485 666.762L482.327 659.745L486.509 664.177H542.766L547.707 659.745H575.076L583.438 668.608H611.567L615.748 673.04L626.392 662.699H688.531L691.012 660.114L693.292 662.699H804.667L811.129 656.052L822.912 668.239H833.175L837.92 664.154H848V648V642.758V503.203V230V85.0001H216V16H40.4967L20 35.7273ZM691.012 660.114L687.21 656.052H694.813L691.012 660.114ZM277.116 660.114L273.307 656.052H280.925L277.116 660.114ZM218 83H230.353H253.824H407V16H237.765L218 34.8818V83Z" fill="black"/>
<path d="M20 86H15H20ZM20 35.7273L16.5327 32.1248L15 33.6V35.7273H20ZM20 503.203H15H20ZM20 642.758H25H20ZM20 664.177H15V669.177H20V664.177ZM58.8531 664.177L62.599 660.865L61.1065 659.177H58.8531V664.177ZM61.1385 666.762L57.3926 670.073L60.9554 674.103L64.7147 670.256L61.1385 666.762ZM67.995 659.745L71.6281 656.31L68.0543 652.53L64.4189 656.251L67.995 659.745ZM72.185 664.177L68.5519 667.612L70.0314 669.177H72.185V664.177ZM128.56 664.177V669.177H130.471L131.894 667.903L128.56 664.177ZM133.512 659.745V654.745H131.601L130.178 656.019L133.512 659.745ZM160.938 659.745L164.571 656.31L163.091 654.745H160.938V659.745ZM169.318 668.608L165.685 672.043L167.164 673.608H169.318V668.608ZM197.505 668.608L201.138 665.173L199.659 663.608H197.505V668.608ZM201.695 673.04L198.062 676.475L201.54 680.154L205.176 676.63L201.695 673.04ZM212.361 662.699V657.699H210.335L208.88 659.11L212.361 662.699ZM274.63 662.699V667.699H276.759L278.235 666.165L274.63 662.699ZM279.401 662.699L275.655 666.011L277.148 667.699H279.401V662.699ZM391.009 662.699V667.699H393.118L394.59 666.188L391.009 662.699ZM397.484 656.052L401.075 652.573L397.494 648.877L393.903 652.563L397.484 656.052ZM409.292 668.239L405.702 671.718L407.175 673.239H409.292V668.239ZM419.577 668.239V673.239H421.43L422.835 672.031L419.577 668.239ZM424.332 664.154V659.154H422.479L421.073 660.362L424.332 664.154ZM434.433 664.154L439.433 664.168L439.446 659.154H434.433V664.154ZM434.433 664.177L429.433 664.163L429.419 669.177H434.433V664.177ZM473.205 664.177L476.954 660.869L475.461 659.177H473.205V664.177ZM475.485 666.762L471.736 670.07L475.302 674.112L479.065 670.252L475.485 666.762ZM482.327 659.745L485.964 656.314L482.387 652.522L478.748 656.254L482.327 659.745ZM486.509 664.177L482.872 667.608L484.352 669.177H486.509V664.177ZM542.766 664.177V669.177H544.68L546.104 667.899L542.766 664.177ZM547.707 659.745V654.745H545.794L544.369 656.023L547.707 659.745ZM575.076 659.745L578.713 656.314L577.233 654.745H575.076V659.745ZM583.438 668.608L579.802 672.039L581.282 673.608H583.438V668.608ZM611.567 668.608L615.204 665.177L613.724 663.608H611.567V668.608ZM615.748 673.04L612.112 676.471L615.594 680.161L619.233 676.626L615.748 673.04ZM626.392 662.699V657.699H624.363L622.908 659.113L626.392 662.699ZM688.531 662.699V667.699H690.663L692.139 666.161L688.531 662.699ZM693.292 662.699L689.543 666.007L691.036 667.699H693.292V662.699ZM804.667 662.699V667.699H806.779L808.252 666.185L804.667 662.699ZM811.129 656.052L814.723 652.577L811.138 648.869L807.543 652.567L811.129 656.052ZM822.912 668.239L819.318 671.714L820.792 673.239H822.912V668.239ZM833.175 668.239V673.239H835.031L836.438 672.028L833.175 668.239ZM837.92 664.154V659.154H836.064L834.658 660.365L837.92 664.154ZM848 664.154V669.154H853V664.154H848ZM848 85.0001H853V80.0001H848V85.0001ZM216 85.0001H211V90.0001H216V85.0001ZM216 16H221V11H216V16ZM40.4967 16V11H38.4815L37.0295 12.3975L40.4967 16ZM687.21 656.052V651.052H675.684L683.56 659.468L687.21 656.052ZM694.813 656.052L698.464 659.468L706.339 651.052H694.813V656.052ZM273.307 656.052V651.052H261.764L269.659 659.472L273.307 656.052ZM280.925 656.052L284.572 659.472L292.468 651.052H280.925V656.052ZM218 83H213V88H218V83ZM407 83V88H412V83H407ZM407 16H412V11H407V16ZM237.765 16V11H235.76L234.311 12.3846L237.765 16ZM218 34.8818L214.546 31.2665L213 32.7435V34.8818H218ZM25 86V35.7273H15V86H25ZM25 503.203L25 86H15L15 503.203H25ZM25 642.758L25 503.203H15L15 642.758H25ZM25 648V642.758H15V648H25ZM25 664.177V648H15V664.177H25ZM58.8531 659.177H20V669.177H58.8531V659.177ZM64.8845 663.45L62.599 660.865L55.1071 667.488L57.3926 670.073L64.8845 663.45ZM64.4189 656.251L57.5624 663.267L64.7147 670.256L71.5711 663.24L64.4189 656.251ZM75.8181 660.741L71.6281 656.31L64.3618 663.18L68.5519 667.612L75.8181 660.741ZM128.56 659.177H72.185V669.177H128.56V659.177ZM130.178 656.019L125.226 660.451L131.894 667.903L136.846 663.471L130.178 656.019ZM160.938 654.745H133.512V664.745H160.938V654.745ZM172.951 665.173L164.571 656.31L157.304 663.18L165.685 672.043L172.951 665.173ZM197.505 663.608H169.318V673.608H197.505V663.608ZM205.328 669.605L201.138 665.173L193.872 672.043L198.062 676.475L205.328 669.605ZM208.88 659.11L198.215 669.45L205.176 676.63L215.841 666.289L208.88 659.11ZM274.63 657.699H212.361V667.699H274.63V657.699ZM273.512 656.649L271.026 659.234L278.235 666.165L280.72 663.58L273.512 656.649ZM283.147 659.388L280.862 656.803L273.37 663.426L275.655 666.011L283.147 659.388ZM391.009 657.699H279.401V667.699H391.009V657.699ZM393.903 652.563L387.427 659.211L394.59 666.188L401.066 659.541L393.903 652.563ZM412.883 664.76L401.075 652.573L393.893 659.532L405.702 671.718L412.883 664.76ZM419.577 663.239H409.292V673.239H419.577V663.239ZM421.073 660.362L416.319 664.446L422.835 672.031L427.59 667.947L421.073 660.362ZM434.433 659.154H424.332V669.154H434.433V659.154ZM439.433 664.19L439.433 664.168L429.433 664.141L429.433 664.163L439.433 664.19ZM473.205 659.177H434.433V669.177H473.205V659.177ZM479.235 663.454L476.954 660.869L469.455 667.485L471.736 670.07L479.235 663.454ZM478.748 656.254L471.905 663.271L479.065 670.252L485.907 663.236L478.748 656.254ZM490.145 660.745L485.964 656.314L478.691 663.177L482.872 667.608L490.145 660.745ZM542.766 659.177H486.509V669.177H542.766V659.177ZM544.369 656.023L539.428 660.454L546.104 667.899L551.046 663.468L544.369 656.023ZM575.076 654.745H547.707V664.745H575.076V654.745ZM587.075 665.177L578.713 656.314L571.439 663.176L579.802 672.039L587.075 665.177ZM611.567 663.608H583.438V673.608H611.567V663.608ZM619.385 669.608L615.204 665.177L607.93 672.039L612.112 676.471L619.385 669.608ZM622.908 659.113L612.264 669.453L619.233 676.626L629.876 666.286L622.908 659.113ZM688.531 657.699H626.392V667.699H688.531V657.699ZM687.404 656.653L684.923 659.238L692.139 666.161L694.619 663.576L687.404 656.653ZM697.042 659.392L694.761 656.807L687.262 663.422L689.543 666.007L697.042 659.392ZM804.667 657.699H693.292V667.699H804.667V657.699ZM807.543 652.567L801.081 659.214L808.252 666.185L814.714 659.537L807.543 652.567ZM826.507 664.763L814.723 652.577L807.534 659.528L819.318 671.714L826.507 664.763ZM833.175 663.239H822.912V673.239H833.175V663.239ZM834.658 660.365L829.913 664.45L836.438 672.028L841.182 667.943L834.658 660.365ZM848 659.154H837.92V669.154H848V659.154ZM843 648V664.154H853V648H843ZM843 642.758V648H853V642.758H843ZM843 503.203V642.758H853V503.203H843ZM843 230V503.203H853V230H843ZM843 85.0001V230H853V85.0001H843ZM216 90.0001H848V80.0001H216V90.0001ZM211 16V85.0001H221V16H211ZM40.4967 21H216V11H40.4967V21ZM23.4673 39.3298L43.964 19.6025L37.0295 12.3975L16.5327 32.1248L23.4673 39.3298ZM683.56 659.468L687.361 663.531L694.663 656.698L690.861 652.636L683.56 659.468ZM694.813 651.052H687.21V661.052H694.813V651.052ZM694.662 663.531L698.464 659.468L691.162 652.636L687.361 656.698L694.662 663.531ZM269.659 659.472L273.468 663.534L280.763 656.694L276.954 652.632L269.659 659.472ZM280.925 651.052H273.307V661.052H280.925V651.052ZM280.763 663.534L284.572 659.472L277.278 652.632L273.468 656.694L280.763 663.534ZM230.353 78H218V88H230.353V78ZM253.824 78H230.353V88H253.824V78ZM407 78H253.824V88H407V78ZM402 16V83H412V16H402ZM237.765 21H407V11H237.765V21ZM221.454 38.4972L241.219 19.6154L234.311 12.3846L214.546 31.2665L221.454 38.4972ZM223 83V34.8818H213V83H223Z" fill="url(#paint0_linear_92_798)" mask="url(#path-1-inside-1_92_798)"/>
</g>
<defs>
<filter id="filter0_d_92_798" x="0" y="0" width="868" height="697.04" filterUnits="userSpaceOnUse" color-interpolation-filters="sRGB">
<feFlood flood-opacity="0" result="BackgroundImageFix"/>
<feColorMatrix in="SourceAlpha" type="matrix" values="0 0 0 0 0 0 0 0 0 0 0 0 0 0 0 0 0 0 127 0" result="hardAlpha"/>
<feOffset dy="4"/>
<feGaussianBlur stdDeviation="10"/>
<feComposite in2="hardAlpha" operator="out"/>
<feColorMatrix type="matrix" values="0 0 0 0 0 0 0 0 0 0 0 0 0 0 0 0 0 0 0.25 0"/>
<feBlend mode="normal" in2="BackgroundImageFix" result="effect1_dropShadow_92_798"/>
<feBlend mode="normal" in="SourceGraphic" in2="effect1_dropShadow_92_798" result="shape"/>
</filter>
<linearGradient id="paint0_linear_92_798" x1="250.465" y1="417.999" x2="253.481" y2="872.882" gradientUnits="userSpaceOnUse">
<stop offset="0.18707" stop-color="#35258D"/>
<stop offset="1" stop-color="#06BDFC"/>
</linearGradient>
</defs>
</svg>
