<svg width="153" height="58" viewBox="0 0 153 58" fill="none" xmlns="http://www.w3.org/2000/svg">
<mask id="path-1-inside-1_113_1173" fill="white">
<path d="M153 0H0V39.5L16 55H124V47H143V55H153V0Z"/>
</mask>
<path d="M153 0H0V39.5L16 55H124V47H143V55H153V0Z" fill="url(#paint0_linear_113_1173)"/>
<path d="M0 0V-3H-3V0H0ZM153 0H156V-3H153V0ZM0 39.5H-3V40.7706L-2.08739 41.6547L0 39.5ZM16 55L13.9126 57.1547L14.7852 58H16V55ZM124 55V58H127V55H124ZM124 47V44H121V47H124ZM143 47H146V44H143V47ZM143 55H140V58H143V55ZM153 55V58H156V55H153ZM0 3H153V-3H0V3ZM3 39.5V0H-3V39.5H3ZM18.0874 52.8453L2.08739 37.3453L-2.08739 41.6547L13.9126 57.1547L18.0874 52.8453ZM124 52H16V58H124V52ZM127 55V47H121V55H127ZM124 50H143V44H124V50ZM140 47V55H146V47H140ZM153 52H143V58H153V52ZM150 0V55H156V0H150Z" fill="url(#paint1_linear_113_1173)" mask="url(#path-1-inside-1_113_1173)"/>
<path d="M133.11 56.1C132.57 56.1 132.047 56.0233 131.54 55.87C131.04 55.7167 130.643 55.5133 130.35 55.26L130.8 54.25C131.087 54.4767 131.437 54.6633 131.85 54.81C132.27 54.95 132.69 55.02 133.11 55.02C133.63 55.02 134.017 54.9367 134.27 54.77C134.53 54.6033 134.66 54.3833 134.66 54.11C134.66 53.91 134.587 53.7467 134.44 53.62C134.3 53.4867 134.12 53.3833 133.9 53.31C133.68 53.2367 133.38 53.1533 133 53.06C132.467 52.9333 132.033 52.8067 131.7 52.68C131.373 52.5533 131.09 52.3567 130.85 52.09C130.617 51.8167 130.5 51.45 130.5 50.99C130.5 50.6033 130.603 50.2533 130.81 49.94C131.023 49.62 131.34 49.3667 131.76 49.18C132.187 48.9933 132.707 48.9 133.32 48.9C133.747 48.9 134.167 48.9533 134.58 49.06C134.993 49.1667 135.35 49.32 135.65 49.52L135.24 50.53C134.933 50.35 134.613 50.2133 134.28 50.12C133.947 50.0267 133.623 49.98 133.31 49.98C132.797 49.98 132.413 50.0667 132.16 50.24C131.913 50.4133 131.79 50.6433 131.79 50.93C131.79 51.13 131.86 51.2933 132 51.42C132.147 51.5467 132.33 51.6467 132.55 51.72C132.77 51.7933 133.07 51.8767 133.45 51.97C133.97 52.09 134.397 52.2167 134.73 52.35C135.063 52.4767 135.347 52.6733 135.58 52.94C135.82 53.2067 135.94 53.5667 135.94 54.02C135.94 54.4067 135.833 54.7567 135.62 55.07C135.413 55.3833 135.097 55.6333 134.67 55.82C134.243 56.0067 133.723 56.1 133.11 56.1Z" fill="white"/>
<defs>
<linearGradient id="paint0_linear_113_1173" x1="76.5" y1="0" x2="76.5" y2="55" gradientUnits="userSpaceOnUse">
<stop offset="0.354167" stop-color="#150B37"/>
<stop offset="1" stop-color="#3E386C"/>
</linearGradient>
<linearGradient id="paint1_linear_113_1173" x1="76.5" y1="0" x2="76.5" y2="55" gradientUnits="userSpaceOnUse">
<stop stop-color="#35258D"/>
<stop offset="1" stop-color="white"/>
</linearGradient>
</defs>
</svg>
