<svg viewBox="0 0 67 67" fill="none" xmlns="http://www.w3.org/2000/svg">
<path d="M33.7676 0.478027C15.5256 0.478027 0.738373 15.2652 0.738373 33.5073C0.738373 48.1839 10.3185 60.6095 23.5616 64.9115H43.9737C57.2168 60.6095 66.7969 48.1839 66.7969 33.5073C66.7969 15.2652 52.0097 0.478027 33.7676 0.478027Z" fill="#06BDFC"/>
<path opacity="0.05" d="M43.6927 63.2258L43.6762 53.6506C43.6762 52.0999 43.3129 50.5855 42.616 49.2131C51.9319 47.342 56.4652 41.8344 56.4652 32.4062C56.4652 28.6821 55.3669 25.3941 53.2019 22.6295C53.367 22.106 53.4892 21.5643 53.5652 21.0094C53.8757 18.7486 53.5272 17.2705 53.2465 16.0815L53.2019 15.8899C52.8947 14.5753 52.5264 13.6373 52.5116 13.5977L52.3282 13.132L52.1449 12.6663L51.6462 12.6134L51.1458 12.5606C51.1458 12.5606 50.8172 12.5259 50.3184 12.5259C49.6265 12.5259 48.6009 12.5952 47.6315 12.9239L47.3078 13.0329C46.0857 13.4441 44.9313 13.8338 43.3162 14.7983C42.8439 15.0807 42.327 15.4027 41.7737 15.7627C39.2734 15.1434 36.5832 14.828 33.7674 14.828C30.9236 14.828 28.2103 15.1451 25.6934 15.771C25.1336 15.4077 24.6134 15.0823 24.1378 14.7983C22.5226 13.8338 21.3683 13.4457 20.1462 13.0329L19.8225 12.9239C18.8564 12.5952 17.8292 12.5259 17.1372 12.5259C16.6385 12.5259 16.3098 12.5606 16.3098 12.5606L15.8111 12.6134L15.3156 12.6646L15.1307 13.1287L14.9441 13.596C14.9276 13.639 14.5593 14.577 14.2521 15.8932L14.2075 16.0831C13.9268 17.2705 13.5783 18.7502 13.8888 21.0094C13.9681 21.5809 14.0952 22.1407 14.2686 22.6791C12.1465 25.4304 11.0714 28.7003 11.0714 32.4062C11.0714 41.8113 15.6096 47.3156 24.9387 49.2016C24.6183 49.8424 24.369 50.5195 24.1923 51.223C23.8669 51.3336 23.568 51.4079 23.3038 51.4492C22.9107 51.5087 22.4995 51.5384 22.0833 51.5384C20.9504 51.5384 20.0603 51.3171 19.7135 51.1107C19.1966 50.8035 18.2734 49.9101 17.3783 48.6038C16.6137 47.489 15.4213 46.0308 14.0886 45.4214C12.9359 44.8946 11.7155 44.5923 10.7378 44.5923C10.5099 44.5923 10.3001 44.6089 10.1168 44.6386C9.26303 44.774 8.5496 45.243 8.1615 45.9267C7.82626 46.5163 7.77341 47.2033 8.01617 47.8111C8.37784 48.7161 9.42157 49.4377 10.2341 49.8836C10.6337 50.1033 11.4975 50.9059 12.0012 51.7151C12.3793 52.3229 12.5544 52.7555 12.7972 53.3534C12.9408 53.7084 13.0994 54.0949 13.3141 54.5622C14.0903 56.25 16.513 57.7397 16.7871 57.9031C18.1182 58.7008 20.3559 58.9568 22.0008 59.0311L22.2039 59.036H22.2056C22.6019 59.036 23.1469 58.9981 23.8636 58.9188V63.2341C23.8669 64.1077 22.9768 64.3059 21.7993 64.2877L22.7026 64.5916C26.1625 65.8285 29.8783 66.5354 33.7674 66.5354C37.6566 66.5354 41.3724 65.8285 44.8372 64.5932L45.9982 64.1605C44.824 64.1209 43.7027 63.9293 43.6927 63.2258Z" fill="#06BDFC"/>
<path opacity="0.07" d="M44.9623 64.5501C44.2919 64.6277 42.8468 64.37 42.8468 63.2371V53.6521C42.8468 51.8454 42.3051 50.0998 41.3011 48.6118C51.0695 47.0313 55.6341 41.8523 55.6341 32.4076C55.6341 28.7133 54.5012 25.4814 52.2668 22.7928C52.493 22.19 52.6516 21.5542 52.7424 20.8986C53.0314 18.7913 52.716 17.4536 52.4385 16.2728L52.3939 16.0812C52.1 14.8245 51.7532 13.9393 51.7383 13.903L51.555 13.4373L51.0546 13.3844C51.0546 13.3844 50.7606 13.353 50.3131 13.353C49.6839 13.353 48.7541 13.4141 47.892 13.7081L47.5684 13.8171C46.3892 14.2151 45.2745 14.59 43.7353 15.5082C43.187 15.8352 42.576 16.22 41.917 16.6543C39.3854 15.9921 36.6456 15.6552 33.7638 15.6552C30.8539 15.6552 28.091 15.9937 25.5411 16.6626C24.8756 16.2249 24.2613 15.8385 23.7097 15.5082C22.1705 14.59 21.0558 14.2134 19.8766 13.8171L19.5529 13.7081C18.6925 13.4158 17.7611 13.353 17.1319 13.353C16.6843 13.353 16.3904 13.3844 16.3904 13.3844L15.8916 13.4373L15.705 13.9046C15.6902 13.9409 15.3434 14.8261 15.0494 16.0829L15.0048 16.2745C14.7257 17.4553 14.4103 18.7913 14.7009 20.8986C14.7934 21.5707 14.9586 22.2214 15.1931 22.8374C13.0016 25.5128 11.8918 28.7282 11.8918 32.4076C11.8918 41.8259 16.4597 47.0033 26.2364 48.6019C25.5841 49.5762 25.1283 50.6745 24.8938 51.8453C24.3488 52.06 23.855 52.2021 23.4223 52.2681C22.988 52.3342 22.5355 52.3672 22.078 52.3672C20.9385 52.3672 19.8436 52.1542 19.287 51.8239C18.5604 51.3928 17.5414 50.3144 16.6909 49.0742C16.1129 48.2319 14.9619 46.7341 13.7381 46.1759C12.6894 45.6969 11.5945 45.4212 10.7308 45.4212C10.5492 45.4212 10.384 45.4344 10.2387 45.4575C9.63424 45.5533 9.1355 45.8737 8.87126 46.3394C8.65988 46.7093 8.6252 47.137 8.77383 47.5086C9.06944 48.2485 10.1644 48.9123 10.6218 49.1634C11.1751 49.4672 12.1395 50.3921 12.6928 51.2839C13.1073 51.951 13.3038 52.4349 13.5532 53.046C13.6935 53.3911 13.8471 53.7677 14.0552 54.2218C14.6018 55.4092 16.2896 56.6528 17.2012 57.1994C18.4465 57.9459 20.7585 58.1539 22.0268 58.2101L22.2101 58.2134C22.7039 58.2134 23.5313 58.1391 24.6791 57.9904V63.2371C24.6791 64.5236 23.0425 64.5748 22.6412 64.5748C22.59 64.5748 23.4719 64.8787 23.4719 64.8787C26.7137 65.9422 30.1669 66.5368 33.7638 66.5368C37.3607 66.5368 40.8139 65.9422 44.054 64.8804C44.054 64.8804 45.0135 64.5435 44.9623 64.5501Z" fill="#06BDFC"/>
<path d="M54.0724 32.4058C54.0724 28.5909 52.7809 25.4267 50.5762 22.9462C50.8157 22.4095 51.065 21.6895 51.1889 20.7845C51.473 18.7201 51.1377 17.4815 50.8537 16.2694C50.5696 15.0572 50.2344 14.205 50.2344 14.205C50.2344 14.205 48.7117 14.0498 47.4219 14.4891C46.1321 14.9284 45.0223 15.2636 43.4221 16.2182C42.674 16.6641 41.9209 17.1529 41.3247 17.5492C38.7765 16.8424 35.974 16.4791 33.0261 16.4791C30.0518 16.4791 27.2245 16.8441 24.6581 17.5558C24.0603 17.1578 23.3023 16.6657 22.5492 16.2165C20.9489 15.262 19.8392 14.9267 18.5494 14.4874C17.2596 14.0481 15.7369 14.2034 15.7369 14.2034C15.7369 14.2034 15.4017 15.0555 15.1176 16.2677C14.8336 17.4799 14.4983 18.7185 14.7824 20.7828C14.9095 21.7109 15.1672 22.4442 15.4132 22.9842C13.2498 25.4498 11.9815 28.5942 11.9815 32.4042C11.9815 42.2849 17.319 46.795 27.0445 47.9857C25.9099 49.1847 25.1486 50.7205 24.8926 52.4298C24.2535 52.7106 23.517 52.9748 22.8085 53.0805C20.9853 53.3563 19.058 53.0805 18.1299 52.5305C17.2018 51.9806 16.1002 50.742 15.2745 49.5364C14.5776 48.5191 13.5719 47.3383 12.6602 46.9222C11.4563 46.3722 10.2854 46.1658 9.63312 46.2682C8.97914 46.3722 8.67031 46.8528 8.80738 47.198C8.94446 47.5415 9.59844 48.0584 10.2871 48.4366C10.9758 48.8148 12.0426 49.8469 12.6619 50.8444C13.3522 51.9575 13.4876 52.5999 14.0723 53.8715C14.4835 54.7666 15.8905 55.8847 16.893 56.4858C17.7534 57.0027 19.4725 57.2967 21.3321 57.3809C21.9745 57.4106 23.4922 57.2224 24.7721 57.0407V63.2337C24.7721 64.289 23.806 65.0916 22.8052 64.9066C26.0173 65.9867 29.4474 66.535 33.0261 66.535C36.6032 66.535 40.0333 65.9867 43.2487 64.9099C42.2495 65.0932 41.2834 64.2906 41.2834 63.2353V53.6502C41.2834 51.4554 40.4131 49.472 39.016 47.994C48.6704 46.8346 54.0724 42.4318 54.0724 32.4058ZM11.9518 47.918C11.6974 47.7875 11.5604 47.5464 11.6463 47.3763C11.7321 47.2062 12.0096 47.1748 12.2639 47.3053C12.5182 47.4358 12.6553 47.6769 12.5694 47.847C12.4835 48.0171 12.2061 48.0485 11.9518 47.918ZM13.9533 49.1649C13.8196 49.3102 13.5322 49.2639 13.3109 49.0625C13.0896 48.861 13.0186 48.5786 13.1524 48.4333C13.2862 48.2879 13.5735 48.3342 13.7948 48.5357C14.0161 48.7371 14.0871 49.0195 13.9533 49.1649ZM15.1985 51.2292C15.0301 51.3481 14.7444 51.2374 14.5611 50.9815C14.3778 50.7255 14.3662 50.42 14.5347 50.3011C14.7031 50.1822 14.9888 50.2928 15.1721 50.5488C15.3538 50.8048 15.367 51.1103 15.1985 51.2292ZM16.9871 52.7832C16.8731 52.9682 16.5494 52.9764 16.2654 52.803C15.9813 52.6296 15.8426 52.339 15.9566 52.154C16.0705 51.969 16.3942 51.9608 16.6783 52.1342C16.9623 52.3076 17.101 52.5983 16.9871 52.7832ZM18.6782 54.3042C18.3264 54.2613 18.0655 54.0416 18.0952 53.8137C18.1233 53.5858 18.4321 53.4372 18.7822 53.4801C19.134 53.5231 19.3949 53.7427 19.3652 53.9706C19.3371 54.1969 19.0299 54.3472 18.6782 54.3042ZM21.4047 54.6989C21.0299 54.6774 20.7376 54.4628 20.7524 54.2216C20.7673 53.9805 21.0827 53.8005 21.4576 53.822C21.8325 53.8435 22.1248 54.0581 22.1099 54.2993C22.0951 54.542 21.7796 54.7204 21.4047 54.6989ZM23.9777 54.4413C23.5781 54.4413 23.2544 54.2332 23.2544 53.9772C23.2544 53.7212 23.5781 53.5132 23.9777 53.5132C24.3774 53.5132 24.7011 53.7212 24.7011 53.9772C24.7011 54.2332 24.3757 54.4413 23.9777 54.4413Z" fill="#1E1B25"/>
</svg>
