<svg width="318" height="14" viewBox="0 0 318 14" fill="none" xmlns="http://www.w3.org/2000/svg">
<path d="M153.05 12L151.718 10.668V4.488L153.05 3.156H157.382L158.714 4.488V10.668L157.382 12H153.05ZM153.758 10.68H156.686L157.214 10.152L157.202 5.004L156.686 4.476H153.746L153.218 5.004L153.23 10.152L153.758 10.68ZM160.396 12V3.156H165.544L166.876 4.488V7.416L165.664 8.628L167.164 12H165.46L164.068 8.748H161.896V12H160.396ZM161.896 7.428H164.848L165.376 6.9V5.004L164.848 4.476H161.896V7.428Z" fill="white"/>
<path d="M1 7H131" stroke="white" stroke-width="2" stroke-linecap="round"/>
<line x1="189" y1="7" x2="317" y2="7" stroke="white" stroke-width="2" stroke-linecap="round"/>
</svg>
