<svg width="1455" height="694" viewBox="0 0 1455 694" fill="none" xmlns="http://www.w3.org/2000/svg">
<g filter="url(#filter0_d_92_270)">
<mask id="path-1-inside-1_92_270" fill="white">
<path fill-rule="evenodd" clip-rule="evenodd" d="M43 10L10 44V652V653V674.634H54.9062L57.5478 677.366L65.4724 669.951L70.3153 674.634H135.473L141.197 669.951H172.895L182.581 679.317H215.16L220.003 684L232.33 673.073H304.301L307.174 670.341L309.815 673.073H438.811L446.295 666.049L459.943 678.927H471.83L477.325 674.61H487V674.634H532L534.647 677.366L542.588 669.951L547.441 674.634H612.735L618.471 669.951H650.235L659.941 679.317H692.588L697.441 684L709.794 673.073H781.915L784.794 670.341L787.441 673.073H916.706L924.206 666.049L937.882 678.927H949.794L955.301 674.61H965V674.634H1010L1012.65 677.366L1020.59 669.951L1025.44 674.634H1090.74L1096.47 669.951H1128.24L1137.94 679.317H1170.59L1175.44 684L1187.79 673.073H1259.92L1262.79 670.341L1265.44 673.073H1394.71L1402.21 666.049L1415.88 678.927H1427.79L1433.3 674.61H1445V653V652V10H43ZM1262.79 670.341L1258.38 666.049H1267.21L1262.79 670.341ZM784.794 670.341L780.382 666.049H789.206L784.794 670.341ZM307.174 670.341L302.771 666.049H311.576L307.174 670.341Z"/>
</mask>
<path fill-rule="evenodd" clip-rule="evenodd" d="M43 10L10 44V652V653V674.634H54.9062L57.5478 677.366L65.4724 669.951L70.3153 674.634H135.473L141.197 669.951H172.895L182.581 679.317H215.16L220.003 684L232.33 673.073H304.301L307.174 670.341L309.815 673.073H438.811L446.295 666.049L459.943 678.927H471.83L477.325 674.61H487V674.634H532L534.647 677.366L542.588 669.951L547.441 674.634H612.735L618.471 669.951H650.235L659.941 679.317H692.588L697.441 684L709.794 673.073H781.915L784.794 670.341L787.441 673.073H916.706L924.206 666.049L937.882 678.927H949.794L955.301 674.61H965V674.634H1010L1012.65 677.366L1020.59 669.951L1025.44 674.634H1090.74L1096.47 669.951H1128.24L1137.94 679.317H1170.59L1175.44 684L1187.79 673.073H1259.92L1262.79 670.341L1265.44 673.073H1394.71L1402.21 666.049L1415.88 678.927H1427.79L1433.3 674.61H1445V653V652V10H43ZM1262.79 670.341L1258.38 666.049H1267.21L1262.79 670.341ZM784.794 670.341L780.382 666.049H789.206L784.794 670.341ZM307.174 670.341L302.771 666.049H311.576L307.174 670.341Z" fill="black"/>
<path d="M10 44L6.4121 40.5176L5 41.9725V44H10ZM43 10V5H40.8851L39.4121 6.51762L43 10ZM10 674.634H5V679.634H10V674.634ZM54.9062 674.634L58.5006 671.158L57.0266 669.634H54.9062V674.634ZM57.5478 677.366L53.9535 680.842L57.3724 684.377L60.9639 681.017L57.5478 677.366ZM65.4724 669.951L68.9481 666.357L65.5292 663.051L62.0563 666.3L65.4724 669.951ZM70.3153 674.634L66.8396 678.229L68.2932 679.634H70.3153V674.634ZM135.473 674.634V679.634H137.258L138.64 678.504L135.473 674.634ZM141.197 669.951V664.951H139.412L138.03 666.081L141.197 669.951ZM172.895 669.951L176.371 666.357L174.917 664.951H172.895V669.951ZM182.581 679.317L179.105 682.911L180.559 684.317H182.581V679.317ZM215.16 679.317L218.636 675.723L217.182 674.317H215.16V679.317ZM220.003 684L216.527 687.594L219.855 690.812L223.319 687.742L220.003 684ZM232.33 673.073V668.073H230.433L229.013 669.331L232.33 673.073ZM304.301 673.073V678.073H306.299L307.746 676.697L304.301 673.073ZM309.815 673.073L306.221 676.549L307.695 678.073H309.815V673.073ZM438.811 673.073V678.073H440.79L442.232 676.719L438.811 673.073ZM446.295 666.049L449.727 662.412L446.304 659.183L442.873 662.403L446.295 666.049ZM459.943 678.927L456.512 682.563L457.956 683.927H459.943V678.927ZM471.83 678.927V683.927H473.559L474.919 682.859L471.83 678.927ZM477.325 674.61V669.61H475.596L474.237 670.678L477.325 674.61ZM487 674.61H492V669.61H487V674.61ZM487 674.634H482V679.634H487V674.634ZM532 674.634L535.591 671.155L534.117 669.634H532V674.634ZM534.647 677.366L531.056 680.845L534.472 684.37L538.059 681.021L534.647 677.366ZM542.588 669.951L546.06 666.353L542.645 663.058L539.176 666.297L542.588 669.951ZM547.441 674.634L543.969 678.232L545.422 679.634H547.441V674.634ZM612.735 674.634V679.634H614.517L615.898 678.507L612.735 674.634ZM618.471 669.951V664.951H616.689L615.308 666.078L618.471 669.951ZM650.235 669.951L653.707 666.353L652.254 664.951H650.235V669.951ZM659.941 679.317L656.469 682.915L657.922 684.317H659.941V679.317ZM692.588 679.317L696.06 675.719L694.607 674.317H692.588V679.317ZM697.441 684L693.969 687.598L697.294 690.806L700.754 687.745L697.441 684ZM709.794 673.073V668.073H707.9L706.481 669.328L709.794 673.073ZM781.915 673.073V678.073H783.91L785.357 676.7L781.915 673.073ZM787.441 673.073L783.85 676.553L785.324 678.073H787.441V673.073ZM916.706 673.073V678.073H918.682L920.124 676.723L916.706 673.073ZM924.206 666.049L927.634 662.409L924.215 659.19L920.788 662.399L924.206 666.049ZM937.882 678.927L934.455 682.567L935.899 683.927H937.882V678.927ZM949.794 678.927V683.927H951.52L952.879 682.862L949.794 678.927ZM955.301 674.61V669.61H953.575L952.216 670.675L955.301 674.61ZM965 674.61H970V669.61H965V674.61ZM965 674.634H960V679.634H965V674.634ZM1010 674.634L1013.59 671.155L1012.12 669.634H1010V674.634ZM1012.65 677.366L1009.06 680.845L1012.47 684.37L1016.06 681.021L1012.65 677.366ZM1020.59 669.951L1024.06 666.353L1020.64 663.058L1017.18 666.297L1020.59 669.951ZM1025.44 674.634L1021.97 678.232L1023.42 679.634H1025.44V674.634ZM1090.74 674.634V679.634H1092.52L1093.9 678.507L1090.74 674.634ZM1096.47 669.951V664.951H1094.69L1093.31 666.078L1096.47 669.951ZM1128.24 669.951L1131.71 666.353L1130.25 664.951H1128.24V669.951ZM1137.94 679.317L1134.47 682.915L1135.92 684.317H1137.94V679.317ZM1170.59 679.317L1174.06 675.719L1172.61 674.317H1170.59V679.317ZM1175.44 684L1171.97 687.598L1175.29 690.806L1178.75 687.745L1175.44 684ZM1187.79 673.073V668.073H1185.9L1184.48 669.328L1187.79 673.073ZM1259.92 673.073V678.073H1261.91L1263.36 676.7L1259.92 673.073ZM1265.44 673.073L1261.85 676.553L1263.32 678.073H1265.44V673.073ZM1394.71 673.073V678.073H1396.68L1398.12 676.723L1394.71 673.073ZM1402.21 666.049L1405.63 662.409L1402.21 659.19L1398.79 662.399L1402.21 666.049ZM1415.88 678.927L1412.45 682.567L1413.9 683.927H1415.88V678.927ZM1427.79 678.927V683.927H1429.52L1430.88 682.862L1427.79 678.927ZM1433.3 674.61V669.61H1431.57L1430.22 670.675L1433.3 674.61ZM1445 674.61V679.61H1450V674.61H1445ZM1445 10H1450V5H1445V10ZM1258.38 666.049V661.049H1246.07L1254.9 669.632L1258.38 666.049ZM1267.21 666.049L1270.69 669.632L1279.51 661.049H1267.21V666.049ZM780.382 666.049V661.049H768.074L776.896 669.632L780.382 666.049ZM789.206 666.049L792.693 669.632L801.514 661.049H789.206V666.049ZM302.771 666.049V661.049H290.481L299.281 669.629L302.771 666.049ZM311.576 666.049L315.067 669.629L323.866 661.049H311.576V666.049ZM13.5879 47.4824L46.5879 13.4824L39.4121 6.51762L6.4121 40.5176L13.5879 47.4824ZM15 652V44H5V652H15ZM15 653V652H5V653H15ZM15 674.634V653H5V674.634H15ZM54.9062 669.634H10V679.634H54.9062V669.634ZM61.1421 673.89L58.5006 671.158L51.3119 678.11L53.9535 680.842L61.1421 673.89ZM62.0563 666.3L54.1317 673.715L60.9639 681.017L68.8885 673.602L62.0563 666.3ZM73.791 671.04L68.9481 666.357L61.9967 673.546L66.8396 678.229L73.791 671.04ZM135.473 669.634H70.3153V679.634H135.473V669.634ZM138.03 666.081L132.307 670.764L138.64 678.504L144.363 673.821L138.03 666.081ZM172.895 664.951H141.197V674.951H172.895V664.951ZM186.057 675.723L176.371 666.357L169.42 673.546L179.105 682.911L186.057 675.723ZM215.16 674.317H182.581V684.317H215.16V674.317ZM223.478 680.406L218.636 675.723L211.684 682.911L216.527 687.594L223.478 680.406ZM229.013 669.331L216.686 680.258L223.319 687.742L235.647 676.815L229.013 669.331ZM304.301 668.073H232.33V678.073H304.301V668.073ZM303.728 666.718L300.856 669.45L307.746 676.697L310.619 673.965L303.728 666.718ZM313.41 669.597L310.768 666.866L303.579 673.817L306.221 676.549L313.41 669.597ZM438.811 668.073H309.815V678.073H438.811V668.073ZM442.873 662.403L435.389 669.427L442.232 676.719L449.717 669.695L442.873 662.403ZM463.375 675.29L449.727 662.412L442.864 669.685L456.512 682.563L463.375 675.29ZM471.83 673.927H459.943V683.927H471.83V673.927ZM474.237 670.678L468.741 674.995L474.919 682.859L480.414 678.542L474.237 670.678ZM487 669.61H477.325V679.61H487V669.61ZM492 674.634V674.61H482V674.634H492ZM532 669.634H487V679.634H532V669.634ZM538.238 673.886L535.591 671.155L528.409 678.114L531.056 680.845L538.238 673.886ZM539.176 666.297L531.235 673.711L538.059 681.021L546.001 673.606L539.176 666.297ZM550.913 671.036L546.06 666.353L539.116 673.549L543.969 678.232L550.913 671.036ZM612.735 669.634H547.441V679.634H612.735V669.634ZM615.308 666.078L609.573 670.761L615.898 678.507L621.633 673.824L615.308 666.078ZM650.235 664.951H618.471V674.951H650.235V664.951ZM663.413 675.719L653.707 666.353L646.763 673.549L656.469 682.915L663.413 675.719ZM692.588 674.317H659.941V684.317H692.588V674.317ZM700.913 680.402L696.06 675.719L689.116 682.915L693.969 687.598L700.913 680.402ZM706.481 669.328L694.128 680.255L700.754 687.745L713.107 676.818L706.481 669.328ZM781.915 668.073H709.794V678.073H781.915V668.073ZM781.352 666.715L778.474 669.446L785.357 676.7L788.236 673.968L781.352 666.715ZM791.032 669.594L788.385 666.862L781.203 673.821L783.85 676.553L791.032 669.594ZM916.706 668.073H787.441V678.073H916.706V668.073ZM920.788 662.399L913.288 669.424L920.124 676.723L927.624 669.698L920.788 662.399ZM941.31 675.287L927.634 662.409L920.778 669.689L934.455 682.567L941.31 675.287ZM949.794 673.927H937.882V683.927H949.794V673.927ZM952.216 670.675L946.709 674.992L952.879 682.862L958.385 678.545L952.216 670.675ZM965 669.61H955.301V679.61H965V669.61ZM970 674.634V674.61H960V674.634H970ZM1010 669.634H965V679.634H1010V669.634ZM1016.24 673.886L1013.59 671.155L1006.41 678.114L1009.06 680.845L1016.24 673.886ZM1017.18 666.297L1009.23 673.711L1016.06 681.021L1024 673.606L1017.18 666.297ZM1028.91 671.036L1024.06 666.353L1017.12 673.549L1021.97 678.232L1028.91 671.036ZM1090.74 669.634H1025.44V679.634H1090.74V669.634ZM1093.31 666.078L1087.57 670.761L1093.9 678.507L1099.63 673.824L1093.31 666.078ZM1128.24 664.951H1096.47V674.951H1128.24V664.951ZM1141.41 675.719L1131.71 666.353L1124.76 673.549L1134.47 682.915L1141.41 675.719ZM1170.59 674.317H1137.94V684.317H1170.59V674.317ZM1178.91 680.402L1174.06 675.719L1167.12 682.915L1171.97 687.598L1178.91 680.402ZM1184.48 669.328L1172.13 680.255L1178.75 687.745L1191.11 676.818L1184.48 669.328ZM1259.92 668.073H1187.79V678.073H1259.92V668.073ZM1259.35 666.715L1256.47 669.446L1263.36 676.7L1266.24 673.968L1259.35 666.715ZM1269.03 669.594L1266.38 666.862L1259.2 673.821L1261.85 676.553L1269.03 669.594ZM1394.71 668.073H1265.44V678.073H1394.71V668.073ZM1398.79 662.399L1391.29 669.424L1398.12 676.723L1405.62 669.698L1398.79 662.399ZM1419.31 675.287L1405.63 662.409L1398.78 669.689L1412.45 682.567L1419.31 675.287ZM1427.79 673.927H1415.88V683.927H1427.79V673.927ZM1430.22 670.675L1424.71 674.992L1430.88 682.862L1436.39 678.545L1430.22 670.675ZM1445 669.61H1433.3V679.61H1445V669.61ZM1440 653V674.61H1450V653H1440ZM1440 652V653H1450V652H1440ZM1440 10V652H1450V10H1440ZM43 15H1445V5H43V15ZM1254.9 669.632L1259.31 673.925L1266.28 666.758L1261.87 662.465L1254.9 669.632ZM1267.21 661.049H1258.38V671.049H1267.21V661.049ZM1266.28 673.925L1270.69 669.632L1263.72 662.465L1259.31 666.758L1266.28 673.925ZM776.896 669.632L781.307 673.925L788.281 666.758L783.869 662.465L776.896 669.632ZM789.206 661.049H780.382V671.049H789.206V661.049ZM788.281 673.925L792.693 669.632L785.719 662.465L781.307 666.758L788.281 673.925ZM299.281 669.629L303.683 673.921L310.664 666.762L306.262 662.469L299.281 669.629ZM311.576 661.049H302.771V671.049H311.576V661.049ZM310.664 673.921L315.067 669.629L308.086 662.469L303.683 666.762L310.664 673.921Z" fill="url(#paint0_linear_92_270)" mask="url(#path-1-inside-1_92_270)"/>
</g>
<defs>
<filter id="filter0_d_92_270" x="0" y="0" width="1455" height="694" filterUnits="userSpaceOnUse" color-interpolation-filters="sRGB">
<feFlood flood-opacity="0" result="BackgroundImageFix"/>
<feColorMatrix in="SourceAlpha" type="matrix" values="0 0 0 0 0 0 0 0 0 0 0 0 0 0 0 0 0 0 127 0" result="hardAlpha"/>
<feOffset/>
<feGaussianBlur stdDeviation="5"/>
<feComposite in2="hardAlpha" operator="out"/>
<feColorMatrix type="matrix" values="0 0 0 0 0 0 0 0 0 0 0 0 0 0 0 0 0 0 0.25 0"/>
<feBlend mode="normal" in2="BackgroundImageFix" result="effect1_dropShadow_92_270"/>
<feBlend mode="normal" in="SourceGraphic" in2="effect1_dropShadow_92_270" result="shape"/>
</filter>
<linearGradient id="paint0_linear_92_270" x1="324.627" y1="1.74634" x2="324.627" y2="588.328" gradientUnits="userSpaceOnUse">
<stop stop-color="#35258D"/>
<stop offset="1" stop-color="#00C0C4"/>
</linearGradient>
</defs>
</svg>
