<svg viewBox="0 0 67 67" fill="none" xmlns="http://www.w3.org/2000/svg">
<path d="M33.0293 0.680664C14.7872 0.680664 0 15.4679 0 33.7099C0 51.952 14.7872 66.7392 33.0293 66.7392C51.2713 66.7392 66.0585 51.952 66.0585 33.7099C66.0585 15.4679 51.2713 0.680664 33.0293 0.680664Z" fill="#06BDFC"/>
<path opacity="0.05" d="M42.9404 51.8709V37.0077C42.9404 35.1861 41.459 33.7048 39.6374 33.7048C37.8159 33.7048 36.3345 35.1861 36.3345 37.0077V51.8709H26.4257V23.796H36.3345V25.492C38.052 24.3889 40.0536 23.796 42.1146 23.796C48.0335 23.796 52.8491 28.6117 52.8491 34.5305V51.8709H42.9404ZM14.8655 51.8709V23.796H19.7637C16.9249 23.796 14.8655 21.7118 14.8655 18.8399C14.8655 15.9697 16.9579 13.8872 19.838 13.8872C22.6389 13.8872 24.7148 15.9548 24.7743 18.8069C24.7743 21.7036 22.6819 23.796 19.8001 23.796H24.7743V51.8709H14.8655Z" fill="#06BDFC"/>
<path opacity="0.07" d="M43.7663 51.0475V37.0101C43.7663 34.7344 41.915 32.8814 39.6376 32.8814C37.3603 32.8814 35.509 34.7344 35.509 37.0101V51.0475H27.2517V24.6241H35.509V27.1575C37.3091 25.544 39.6575 24.6241 42.1148 24.6241C47.5795 24.6241 52.0236 29.0682 52.0236 34.5329V51.0475H43.7663ZM15.6914 51.0475V24.6241H23.9487V51.0475H15.6914ZM19.7639 22.9727C17.404 22.9727 15.6914 21.2353 15.6914 18.8423C15.6914 16.451 17.4354 14.7153 19.8382 14.7153C22.2097 14.7153 23.8992 16.4048 23.9487 18.8258C23.9487 21.2353 22.2031 22.9727 19.8003 22.9727H19.7639Z" fill="#06BDFC"/>
<path d="M16.5188 25.4478H23.1247V50.2198H16.5188V25.4478ZM19.8019 22.1449H19.7656C17.7937 22.1449 16.5188 20.6751 16.5188 18.8403C16.5188 16.9659 17.8334 15.5391 19.8399 15.5391C21.8497 15.5391 23.0867 16.9659 23.1247 18.8403C23.1247 20.6751 21.8497 22.1449 19.8019 22.1449ZM51.1995 34.5309C51.1995 29.5137 47.1336 25.4478 42.1165 25.4478C39.0415 25.4478 36.3281 26.9804 34.6849 29.3189V25.4478H28.079V50.2198H34.6849V37.0081C34.6849 34.2716 36.9028 32.0537 39.6393 32.0537C42.3758 32.0537 44.5937 34.2716 44.5937 37.0081V50.2198H51.1995C51.1995 50.2198 51.1995 35.2262 51.1995 34.5309Z" fill="#1E1B25"/>
</svg>
