<svg width="60" height="60" viewBox="0 0 42 42" fill="none" xmlns="http://www.w3.org/2000/svg">
<circle cx="20.8586" cy="20.8586" r="20.8586" fill="#FFB9D5"/>
<path d="M20.3119 9C14.0615 9 9 14.0728 9 20.3232C9 26.5737 14.0615 31.6465 20.3119 31.6465C26.5737 31.6465 31.6465 26.5737 31.6465 20.3232C31.6465 14.0728 26.5737 9 20.3119 9ZM20.3232 29.3818C15.3184 29.3818 11.2646 25.3281 11.2646 20.3232C11.2646 15.3184 15.3184 11.2646 20.3232 11.2646C25.3281 11.2646 29.3818 15.3184 29.3818 20.3232C29.3818 25.3281 25.3281 29.3818 20.3232 29.3818ZM20.8894 14.6616H19.1909V21.4556L25.1356 25.0224L25.9848 23.6296L20.8894 20.6063V14.6616Z" fill="#140A34"/>
</svg>
