<svg width="1474" height="732" viewBox="0 0 1474 732" fill="none" xmlns="http://www.w3.org/2000/svg">
<g filter="url(#filter0_d_113_1131)">
<mask id="path-1-inside-1_113_1131" fill="white">
<path fill-rule="evenodd" clip-rule="evenodd" d="M35 16C26.7157 16 20 22.7157 20 31V665C20 667.528 20.6255 669.91 21.7301 672H20V697.463H64.8125L67.4485 700.537L75.3566 692.195L80.1893 697.463H145.211L150.923 692.195H182.555L192.221 702.732H224.732L229.564 708L241.866 695.707H313.687L316.553 692.634L319.189 695.707H447.915L455.384 687.805L469.004 702.293H480.866L486.35 697.437H498L498 697.463H542.812L545.449 700.537L553.357 692.195L558.189 697.463H623.211L628.923 692.195H660.555L670.221 702.732H702.732L707.564 708L719.866 695.707H791.687L794.553 692.634L797.189 695.707H925.915L933.384 687.805L947.004 702.293H958.866L964.35 697.437H976V697.463H1020.81L1023.45 700.537L1031.36 692.195L1036.19 697.463H1101.21L1106.92 692.195H1138.56L1148.22 702.732H1180.73L1185.56 708L1197.87 695.707H1269.69L1272.55 692.634L1275.19 695.707H1403.92L1411.38 687.805L1425 702.293H1436.87L1442.35 697.437H1454V672H1452.27C1453.37 669.91 1454 667.528 1454 665V31C1454 22.7157 1447.28 16 1439 16H35ZM1272.55 692.634L1268.16 687.805H1276.95L1272.55 692.634ZM794.553 692.634L790.16 687.805H798.947L794.553 692.634ZM316.553 692.634L312.16 687.805H320.947L316.553 692.634Z"/>
</mask>
<path fill-rule="evenodd" clip-rule="evenodd" d="M35 16C26.7157 16 20 22.7157 20 31V665C20 667.528 20.6255 669.91 21.7301 672H20V697.463H64.8125L67.4485 700.537L75.3566 692.195L80.1893 697.463H145.211L150.923 692.195H182.555L192.221 702.732H224.732L229.564 708L241.866 695.707H313.687L316.553 692.634L319.189 695.707H447.915L455.384 687.805L469.004 702.293H480.866L486.35 697.437H498L498 697.463H542.812L545.449 700.537L553.357 692.195L558.189 697.463H623.211L628.923 692.195H660.555L670.221 702.732H702.732L707.564 708L719.866 695.707H791.687L794.553 692.634L797.189 695.707H925.915L933.384 687.805L947.004 702.293H958.866L964.35 697.437H976V697.463H1020.81L1023.45 700.537L1031.36 692.195L1036.19 697.463H1101.21L1106.92 692.195H1138.56L1148.22 702.732H1180.73L1185.56 708L1197.87 695.707H1269.69L1272.55 692.634L1275.19 695.707H1403.92L1411.38 687.805L1425 702.293H1436.87L1442.35 697.437H1454V672H1452.27C1453.37 669.91 1454 667.528 1454 665V31C1454 22.7157 1447.28 16 1439 16H35ZM1272.55 692.634L1268.16 687.805H1276.95L1272.55 692.634ZM794.553 692.634L790.16 687.805H798.947L794.553 692.634ZM316.553 692.634L312.16 687.805H320.947L316.553 692.634Z" fill="url(#paint0_linear_113_1131)" shape-rendering="crispEdges"/>
<path d="M21.7301 672V678H31.6884L27.0346 669.196L21.7301 672ZM20 672V666H14V672H20ZM20 697.463H14V703.463H20V697.463ZM64.8125 697.463L69.3666 693.557L67.5708 691.463H64.8125V697.463ZM67.4485 700.537L62.8944 704.443L67.2257 709.492L71.8028 704.665L67.4485 700.537ZM75.3566 692.195L79.7781 688.139L75.4289 683.398L71.0024 688.067L75.3566 692.195ZM80.1893 697.463L75.7679 701.519L77.5512 703.463H80.1893V697.463ZM145.211 697.463V703.463H147.556L149.28 701.874L145.211 697.463ZM150.923 692.195V686.195H148.578L146.855 687.785L150.923 692.195ZM182.555 692.195L186.977 688.139L185.193 686.195H182.555V692.195ZM192.221 702.732L187.799 706.788L189.582 708.732H192.221V702.732ZM224.732 702.732L229.153 698.676L227.37 696.732H224.732V702.732ZM229.564 708L225.143 712.056L229.376 716.671L233.805 712.244L229.564 708ZM241.866 695.707V689.707H239.382L237.625 691.463L241.866 695.707ZM313.687 695.707V701.707H316.295L318.074 699.8L313.687 695.707ZM319.189 695.707L314.635 699.614L316.431 701.707H319.189V695.707ZM447.915 695.707V701.707H450.5L452.276 699.829L447.915 695.707ZM455.384 687.805L459.756 683.695L455.396 679.057L451.024 683.684L455.384 687.805ZM469.004 702.293L464.632 706.402L466.409 708.293H469.004V702.293ZM480.866 702.293V708.293H483.141L484.844 706.785L480.866 702.293ZM486.35 697.437V691.437H484.075L482.372 692.945L486.35 697.437ZM498 697.437L504 697.43L503.993 691.437H498V697.437ZM498 697.463L492 697.47L492.007 703.463H498V697.463ZM542.812 697.463L547.367 693.557L545.571 691.463H542.812V697.463ZM545.449 700.537L540.894 704.443L545.226 709.492L549.803 704.665L545.449 700.537ZM553.357 692.195L557.778 688.139L553.429 683.398L549.002 688.067L553.357 692.195ZM558.189 697.463L553.768 701.519L555.551 703.463H558.189V697.463ZM623.211 697.463V703.463H625.556L627.28 701.874L623.211 697.463ZM628.923 692.195V686.195H626.578L624.855 687.785L628.923 692.195ZM660.555 692.195L664.977 688.139L663.193 686.195H660.555V692.195ZM670.221 702.732L665.799 706.788L667.582 708.732H670.221V702.732ZM702.732 702.732L707.153 698.676L705.37 696.732H702.732V702.732ZM707.564 708L703.143 712.056L707.376 716.671L711.805 712.244L707.564 708ZM719.866 695.707V689.707H717.382L715.625 691.463L719.866 695.707ZM791.687 695.707V701.707H794.295L796.074 699.8L791.687 695.707ZM797.189 695.707L792.635 699.614L794.431 701.707H797.189V695.707ZM925.915 695.707V701.707H928.5L930.276 699.829L925.915 695.707ZM933.384 687.805L937.756 683.695L933.396 679.057L929.024 683.684L933.384 687.805ZM947.004 702.293L942.632 706.402L944.409 708.293H947.004V702.293ZM958.866 702.293V708.293H961.141L962.844 706.785L958.866 702.293ZM964.35 697.437V691.437H962.075L960.372 692.945L964.35 697.437ZM976 697.437H982V691.437H976V697.437ZM976 697.463H970V703.463H976V697.463ZM1020.81 697.463L1025.37 693.557L1023.57 691.463H1020.81V697.463ZM1023.45 700.537L1018.89 704.443L1023.23 709.492L1027.8 704.665L1023.45 700.537ZM1031.36 692.195L1035.78 688.139L1031.43 683.398L1027 688.067L1031.36 692.195ZM1036.19 697.463L1031.77 701.519L1033.55 703.463H1036.19V697.463ZM1101.21 697.463V703.463H1103.56L1105.28 701.874L1101.21 697.463ZM1106.92 692.195V686.195H1104.58L1102.85 687.785L1106.92 692.195ZM1138.56 692.195L1142.98 688.139L1141.19 686.195H1138.56V692.195ZM1148.22 702.732L1143.8 706.788L1145.58 708.732H1148.22V702.732ZM1180.73 702.732L1185.15 698.676L1183.37 696.732H1180.73V702.732ZM1185.56 708L1181.14 712.056L1185.38 716.67L1189.81 712.244L1185.56 708ZM1197.87 695.707V689.707H1195.38L1193.62 691.463L1197.87 695.707ZM1269.69 695.707V701.707H1272.29L1274.07 699.8L1269.69 695.707ZM1275.19 695.707L1270.64 699.614L1272.43 701.707H1275.19V695.707ZM1403.92 695.707V701.707H1406.5L1408.28 699.829L1403.92 695.707ZM1411.38 687.805L1415.76 683.695L1411.4 679.057L1407.02 683.684L1411.38 687.805ZM1425 702.293L1420.63 706.402L1422.41 708.293H1425V702.293ZM1436.87 702.293V708.293H1439.14L1440.84 706.785L1436.87 702.293ZM1442.35 697.437V691.437H1440.07L1438.37 692.945L1442.35 697.437ZM1454 697.437V703.437H1460V697.437H1454ZM1454 672H1460V666H1454V672ZM1452.27 672L1446.97 669.196L1442.31 678H1452.27V672ZM1268.16 687.805V681.805H1254.59L1263.72 691.843L1268.16 687.805ZM1276.95 687.805L1281.38 691.842L1290.52 681.805H1276.95V687.805ZM790.16 687.805V681.805H776.59L785.722 691.843L790.16 687.805ZM798.947 687.805L803.385 691.842L812.516 681.805H798.947V687.805ZM312.16 687.805V681.805H298.59L307.722 691.842L312.16 687.805ZM320.947 687.805L325.385 691.842L334.516 681.805H320.947V687.805ZM26 31C26 26.0294 30.0294 22 35 22V10C23.402 10 14 19.402 14 31H26ZM26 665V31H14V665H26ZM27.0346 669.196C26.3757 667.949 26 666.527 26 665H14C14 668.529 14.8753 671.871 16.4256 674.804L27.0346 669.196ZM20 678H21.7301V666H20V678ZM26 697.463V672H14V697.463H26ZM64.8125 691.463H20V703.463H64.8125V691.463ZM72.0027 696.63L69.3666 693.557L60.2584 701.37L62.8944 704.443L72.0027 696.63ZM71.0024 688.067L63.0943 696.409L71.8028 704.665L79.7109 696.323L71.0024 688.067ZM84.6108 693.408L79.7781 688.139L70.9351 696.251L75.7679 701.519L84.6108 693.408ZM145.211 691.463H80.1893V703.463H145.211V691.463ZM146.855 687.785L141.143 693.053L149.28 701.874L154.991 696.605L146.855 687.785ZM182.555 686.195H150.923V698.195H182.555V686.195ZM196.642 698.676L186.977 688.139L178.134 696.251L187.799 706.788L196.642 698.676ZM224.732 696.732H192.221V708.732H224.732V696.732ZM233.986 703.944L229.153 698.676L220.31 706.788L225.143 712.056L233.986 703.944ZM237.625 691.463L225.323 703.756L233.805 712.244L246.107 699.951L237.625 691.463ZM313.687 689.707H241.866V701.707H313.687V689.707ZM312.166 688.541L309.299 691.615L318.074 699.8L320.941 696.727L312.166 688.541ZM323.743 691.801L321.107 688.728L311.999 696.54L314.635 699.614L323.743 691.801ZM447.915 689.707H319.189V701.707H447.915V689.707ZM451.024 683.684L443.555 691.586L452.276 699.829L459.745 691.926L451.024 683.684ZM473.375 698.183L459.756 683.695L451.013 691.914L464.632 706.402L473.375 698.183ZM480.866 696.293H469.004V708.293H480.866V696.293ZM482.372 692.945L476.888 697.801L484.844 706.785L490.327 701.928L482.372 692.945ZM498 691.437H486.35V703.437H498V691.437ZM504 697.457L504 697.43L492 697.443L492 697.47L504 697.457ZM542.812 691.463H498V703.463H542.812V691.463ZM550.003 696.63L547.367 693.557L538.258 701.37L540.894 704.443L550.003 696.63ZM549.002 688.067L541.094 696.409L549.803 704.665L557.711 696.323L549.002 688.067ZM562.611 693.408L557.778 688.139L548.935 696.251L553.768 701.519L562.611 693.408ZM623.211 691.463H558.189V703.463H623.211V691.463ZM624.855 687.785L619.143 693.053L627.28 701.874L632.991 696.605L624.855 687.785ZM660.555 686.195H628.923V698.195H660.555V686.195ZM674.642 698.676L664.977 688.139L656.134 696.251L665.799 706.788L674.642 698.676ZM702.732 696.732H670.221V708.732H702.732V696.732ZM711.986 703.944L707.153 698.676L698.31 706.788L703.143 712.056L711.986 703.944ZM715.625 691.463L703.323 703.756L711.805 712.244L724.107 699.951L715.625 691.463ZM791.687 689.707H719.866V701.707H791.687V689.707ZM790.166 688.541L787.299 691.615L796.074 699.8L798.941 696.727L790.166 688.541ZM801.744 691.801L799.108 688.728L789.999 696.54L792.635 699.614L801.744 691.801ZM925.915 689.707H797.189V701.707H925.915V689.707ZM929.024 683.684L921.555 691.586L930.276 699.829L937.745 691.926L929.024 683.684ZM951.375 698.183L937.756 683.695L929.013 691.914L942.632 706.402L951.375 698.183ZM958.866 696.293H947.004V708.293H958.866V696.293ZM960.372 692.945L954.888 697.801L962.844 706.785L968.327 701.928L960.372 692.945ZM976 691.437H964.35V703.437H976V691.437ZM982 697.463V697.437H970V697.463H982ZM1020.81 691.463H976V703.463H1020.81V691.463ZM1028 696.63L1025.37 693.557L1016.26 701.37L1018.89 704.443L1028 696.63ZM1027 688.067L1019.09 696.409L1027.8 704.665L1035.71 696.323L1027 688.067ZM1040.61 693.408L1035.78 688.139L1026.94 696.251L1031.77 701.519L1040.61 693.408ZM1101.21 691.463H1036.19V703.463H1101.21V691.463ZM1102.85 687.785L1097.14 693.053L1105.28 701.874L1110.99 696.605L1102.85 687.785ZM1138.56 686.195H1106.92V698.195H1138.56V686.195ZM1152.64 698.676L1142.98 688.139L1134.13 696.251L1143.8 706.788L1152.64 698.676ZM1180.73 696.732H1148.22V708.732H1180.73V696.732ZM1189.99 703.944L1185.15 698.676L1176.31 706.788L1181.14 712.056L1189.99 703.944ZM1193.62 691.463L1181.32 703.756L1189.81 712.244L1202.11 699.951L1193.62 691.463ZM1269.69 689.707H1197.87V701.707H1269.69V689.707ZM1268.17 688.541L1265.3 691.615L1274.07 699.8L1276.94 696.727L1268.17 688.541ZM1279.74 691.801L1277.11 688.728L1268 696.54L1270.64 699.614L1279.74 691.801ZM1403.92 689.707H1275.19V701.707H1403.92V689.707ZM1407.02 683.684L1399.55 691.586L1408.28 699.829L1415.74 691.926L1407.02 683.684ZM1429.38 698.183L1415.76 683.695L1407.01 691.914L1420.63 706.402L1429.38 698.183ZM1436.87 696.293H1425V708.293H1436.87V696.293ZM1438.37 692.945L1432.89 697.801L1440.84 706.785L1446.33 701.928L1438.37 692.945ZM1454 691.437H1442.35V703.437H1454V691.437ZM1448 672V697.437H1460V672H1448ZM1452.27 678H1454V666H1452.27V678ZM1448 665C1448 666.527 1447.62 667.949 1446.97 669.196L1457.57 674.804C1459.12 671.871 1460 668.529 1460 665H1448ZM1448 31V665H1460V31H1448ZM1439 22C1443.97 22 1448 26.0294 1448 31H1460C1460 19.402 1450.6 10 1439 10V22ZM35 22H1439V10H35V22ZM1263.72 691.843L1268.12 696.672L1276.99 688.596L1272.6 683.767L1263.72 691.843ZM1276.95 681.805H1268.16V693.805H1276.95V681.805ZM1276.99 696.672L1281.38 691.842L1272.51 683.767L1268.12 688.597L1276.99 696.672ZM785.722 691.843L790.115 696.672L798.992 688.596L794.598 683.767L785.722 691.843ZM798.947 681.805H790.16V693.805H798.947V681.805ZM798.992 696.672L803.385 691.842L794.508 683.767L790.115 688.597L798.992 696.672ZM307.722 691.842L312.115 696.672L320.992 688.597L316.598 683.767L307.722 691.842ZM320.947 681.805H312.16V693.805H320.947V681.805ZM320.992 696.672L325.385 691.842L316.508 683.767L312.115 688.597L320.992 696.672Z" fill="url(#paint1_linear_113_1131)" mask="url(#path-1-inside-1_113_1131)"/>
</g>
<defs>
<filter id="filter0_d_113_1131" x="0" y="0" width="1474" height="732" filterUnits="userSpaceOnUse" color-interpolation-filters="sRGB">
<feFlood flood-opacity="0" result="BackgroundImageFix"/>
<feColorMatrix in="SourceAlpha" type="matrix" values="0 0 0 0 0 0 0 0 0 0 0 0 0 0 0 0 0 0 127 0" result="hardAlpha"/>
<feOffset dy="4"/>
<feGaussianBlur stdDeviation="10"/>
<feComposite in2="hardAlpha" operator="out"/>
<feColorMatrix type="matrix" values="0 0 0 0 0 0 0 0 0 0 0 0 0 0 0 0 0 0 0.25 0"/>
<feBlend mode="normal" in2="BackgroundImageFix" result="effect1_dropShadow_113_1131"/>
<feBlend mode="normal" in="SourceGraphic" in2="effect1_dropShadow_113_1131" result="shape"/>
</filter>
<linearGradient id="paint0_linear_113_1131" x1="378.251" y1="255" x2="379.752" y2="717" gradientUnits="userSpaceOnUse">
<stop stop-color="#3B375B" stop-opacity="0"/>
<stop offset="0.945542" stop-color="#3F377A"/>
</linearGradient>
<linearGradient id="paint1_linear_113_1131" x1="378.251" y1="255" x2="380.252" y2="717" gradientUnits="userSpaceOnUse">
<stop offset="0.18707" stop-color="#35258D"/>
<stop offset="1" stop-color="#FCCE0D"/>
</linearGradient>
</defs>
</svg>
