<svg width="868" height="629" viewBox="0 0 868 629" fill="none" xmlns="http://www.w3.org/2000/svg">
<g filter="url(#filter0_d_1_2)">
<mask id="path-1-inside-1_1_2" fill="white">
<path fill-rule="evenodd" clip-rule="evenodd" d="M848 16.0001V161V434.203V573.758V579V595.154H837.92L833.175 599.239H822.912L811.129 587.052L804.667 593.7H693.292L691.012 591.114L694.813 587.052H687.21L691.012 591.114L688.531 593.7H626.392L615.748 604.04L611.567 599.608H583.438L575.076 590.745H547.707L542.766 595.177H486.509L482.327 590.745L475.485 597.762L473.205 595.177H434.433L434.433 595.154H424.332L419.577 599.239H409.292L397.484 587.052L391.009 593.7H279.401L277.116 591.114L280.925 587.052H273.307L277.116 591.114L274.63 593.7H212.361L201.695 604.04L197.505 599.608H169.318L160.938 590.745H133.512L128.56 595.177H72.185L67.995 590.745L61.1385 597.762L58.8531 595.177H20V579V573.758V434.203V161V16.0001H848Z"/>
</mask>
<path fill-rule="evenodd" clip-rule="evenodd" d="M848 16.0001V161V434.203V573.758V579V595.154H837.92L833.175 599.239H822.912L811.129 587.052L804.667 593.7H693.292L691.012 591.114L694.813 587.052H687.21L691.012 591.114L688.531 593.7H626.392L615.748 604.04L611.567 599.608H583.438L575.076 590.745H547.707L542.766 595.177H486.509L482.327 590.745L475.485 597.762L473.205 595.177H434.433L434.433 595.154H424.332L419.577 599.239H409.292L397.484 587.052L391.009 593.7H279.401L277.116 591.114L280.925 587.052H273.307L277.116 591.114L274.63 593.7H212.361L201.695 604.04L197.505 599.608H169.318L160.938 590.745H133.512L128.56 595.177H72.185L67.995 590.745L61.1385 597.762L58.8531 595.177H20V579V573.758V434.203V161V16.0001H848Z" fill="black"/>
<path d="M848 16.0001H853V11.0001H848V16.0001ZM848 595.154V600.154H853V595.154H848ZM837.92 595.154V590.154H836.064L834.658 591.365L837.92 595.154ZM833.175 599.239V604.239H835.031L836.438 603.028L833.175 599.239ZM822.912 599.239L819.318 602.714L820.792 604.239H822.912V599.239ZM811.129 587.052L814.723 583.577L811.138 579.869L807.543 583.567L811.129 587.052ZM804.667 593.7V598.7H806.779L808.252 597.185L804.667 593.7ZM693.292 593.7L689.543 597.007L691.036 598.7H693.292V593.7ZM694.813 587.052L698.464 590.468L706.339 582.052H694.813V587.052ZM687.21 587.052V582.052H675.684L683.56 590.468L687.21 587.052ZM688.531 593.7V598.7H690.663L692.139 597.161L688.531 593.7ZM626.392 593.7V588.7H624.363L622.908 590.113L626.392 593.7ZM615.748 604.04L612.112 607.471L615.594 611.161L619.233 607.626L615.748 604.04ZM611.567 599.608L615.204 596.177L613.724 594.608H611.567V599.608ZM583.438 599.608L579.802 603.04L581.282 604.608H583.438V599.608ZM575.076 590.745L578.713 587.314L577.233 585.745H575.076V590.745ZM547.707 590.745V585.745H545.794L544.369 587.023L547.707 590.745ZM542.766 595.177V600.177H544.68L546.104 598.899L542.766 595.177ZM486.509 595.177L482.872 598.608L484.352 600.177H486.509V595.177ZM482.327 590.745L485.964 587.314L482.387 583.522L478.748 587.254L482.327 590.745ZM475.485 597.762L471.736 601.07L475.302 605.111L479.065 601.252L475.485 597.762ZM473.205 595.177L476.954 591.869L475.461 590.177H473.205V595.177ZM434.433 595.177L429.433 595.163L429.419 600.177H434.433V595.177ZM434.433 595.154L439.433 595.168L439.446 590.154H434.433V595.154ZM424.332 595.154V590.154H422.479L421.073 591.362L424.332 595.154ZM419.577 599.239V604.239H421.43L422.835 603.031L419.577 599.239ZM409.292 599.239L405.702 602.718L407.175 604.239H409.292V599.239ZM397.484 587.052L401.075 583.573L397.494 579.877L393.903 583.563L397.484 587.052ZM391.009 593.7V598.7H393.118L394.59 597.188L391.009 593.7ZM279.401 593.7L275.655 597.011L277.148 598.7H279.401V593.7ZM280.925 587.052L284.572 590.472L292.468 582.052H280.925V587.052ZM273.307 587.052V582.052H261.764L269.659 590.472L273.307 587.052ZM274.63 593.7V598.7H276.759L278.235 597.165L274.63 593.7ZM212.361 593.7V588.7H210.335L208.88 590.11L212.361 593.7ZM201.695 604.04L198.062 607.475L201.541 611.154L205.176 607.63L201.695 604.04ZM197.505 599.608L201.138 596.173L199.659 594.608H197.505V599.608ZM169.318 599.608L165.685 603.043L167.164 604.608H169.318V599.608ZM160.938 590.745L164.571 587.31L163.091 585.745H160.938V590.745ZM133.512 590.745V585.745H131.601L130.178 587.019L133.512 590.745ZM128.56 595.177V600.177H130.471L131.894 598.903L128.56 595.177ZM72.185 595.177L68.5519 598.612L70.0314 600.177H72.185V595.177ZM67.995 590.745L71.6281 587.31L68.0543 583.53L64.4189 587.251L67.995 590.745ZM61.1385 597.762L57.3926 601.074L60.9554 605.103L64.7146 601.256L61.1385 597.762ZM58.8531 595.177L62.599 591.865L61.1064 590.177H58.8531V595.177ZM20 595.177H15V600.177H20V595.177ZM20 16.0001V11.0001H15V16.0001H20ZM853 161V16.0001H843V161H853ZM853 434.203V161H843V434.203H853ZM853 573.758V434.203H843V573.758H853ZM853 579V573.758H843V579H853ZM853 595.154V579H843V595.154H853ZM837.92 600.154H848V590.154H837.92V600.154ZM836.438 603.028L841.182 598.943L834.658 591.365L829.913 595.45L836.438 603.028ZM822.912 604.239H833.175V594.239H822.912V604.239ZM807.534 590.528L819.318 602.714L826.507 595.763L814.723 583.577L807.534 590.528ZM808.252 597.185L814.714 590.537L807.543 583.567L801.081 590.214L808.252 597.185ZM693.292 598.7H804.667V588.7H693.292V598.7ZM687.262 594.422L689.543 597.007L697.042 590.392L694.761 587.807L687.262 594.422ZM694.662 594.531L698.464 590.468L691.162 583.636L687.361 587.698L694.662 594.531ZM694.813 582.052H687.21V592.052H694.813V582.052ZM683.56 590.468L687.361 594.531L694.663 587.698L690.861 583.636L683.56 590.468ZM692.139 597.161L694.62 594.576L687.404 587.653L684.923 590.238L692.139 597.161ZM626.392 598.7H688.531V588.7H626.392V598.7ZM619.233 607.626L629.876 597.286L622.908 590.113L612.264 600.454L619.233 607.626ZM607.93 603.04L612.112 607.471L619.385 600.608L615.204 596.177L607.93 603.04ZM583.438 604.608H611.567V594.608H583.438V604.608ZM571.439 594.177L579.802 603.04L587.075 596.177L578.713 587.314L571.439 594.177ZM547.707 595.745H575.076V585.745H547.707V595.745ZM546.104 598.899L551.046 594.468L544.369 587.023L539.428 591.454L546.104 598.899ZM486.509 600.177H542.766V590.177H486.509V600.177ZM478.691 594.177L482.872 598.608L490.145 591.745L485.964 587.314L478.691 594.177ZM479.065 601.252L485.907 594.236L478.748 587.254L471.905 594.271L479.065 601.252ZM469.455 598.485L471.736 601.07L479.235 594.454L476.954 591.869L469.455 598.485ZM434.433 600.177H473.205V590.177H434.433V600.177ZM429.433 595.141L429.433 595.163L439.433 595.19L439.433 595.168L429.433 595.141ZM424.332 600.154H434.433V590.154H424.332V600.154ZM422.835 603.031L427.59 598.947L421.073 591.362L416.319 595.446L422.835 603.031ZM409.292 604.239H419.577V594.239H409.292V604.239ZM393.893 590.532L405.702 602.718L412.883 595.76L401.075 583.573L393.893 590.532ZM394.59 597.188L401.066 590.541L393.903 583.563L387.427 590.211L394.59 597.188ZM279.401 598.7H391.009V588.7H279.401V598.7ZM273.37 594.426L275.655 597.011L283.147 590.388L280.862 587.803L273.37 594.426ZM280.763 594.535L284.572 590.472L277.278 583.632L273.468 587.694L280.763 594.535ZM280.925 582.052H273.307V592.052H280.925V582.052ZM269.659 590.472L273.469 594.535L280.763 587.694L276.954 583.632L269.659 590.472ZM278.235 597.165L280.72 594.58L273.512 587.649L271.026 590.234L278.235 597.165ZM212.361 598.7H274.63V588.7H212.361V598.7ZM205.176 607.63L215.841 597.289L208.88 590.11L198.215 600.45L205.176 607.63ZM193.872 603.043L198.062 607.475L205.328 600.605L201.138 596.173L193.872 603.043ZM169.318 604.608H197.505V594.608H169.318V604.608ZM157.304 594.18L165.685 603.043L172.951 596.173L164.571 587.31L157.304 594.18ZM133.512 595.745H160.938V585.745H133.512V595.745ZM131.894 598.903L136.846 594.471L130.178 587.019L125.226 591.451L131.894 598.903ZM72.185 600.177H128.56V590.177H72.185V600.177ZM64.3618 594.18L68.5519 598.612L75.8181 591.742L71.6281 587.31L64.3618 594.18ZM64.7146 601.256L71.5711 594.24L64.4189 587.251L57.5624 594.267L64.7146 601.256ZM55.1072 598.489L57.3926 601.074L64.8844 594.45L62.599 591.865L55.1072 598.489ZM20 600.177H58.8531V590.177H20V600.177ZM15 579V595.177H25V579H15ZM15 573.758V579H25V573.758H15ZM15 434.203V573.758H25V434.203H15ZM15 161V434.203H25V161H15ZM15 16.0001V161H25V16.0001H15ZM848 11.0001H20V21.0001H848V11.0001Z" fill="url(#paint0_linear_1_2)" mask="url(#path-1-inside-1_1_2)"/>
</g>
<defs>
<filter id="filter0_d_1_2" x="0" y="6.10352e-05" width="868" height="628.04" filterUnits="userSpaceOnUse" color-interpolation-filters="sRGB">
<feFlood flood-opacity="0" result="BackgroundImageFix"/>
<feColorMatrix in="SourceAlpha" type="matrix" values="0 0 0 0 0 0 0 0 0 0 0 0 0 0 0 0 0 0 127 0" result="hardAlpha"/>
<feOffset dy="4"/>
<feGaussianBlur stdDeviation="10"/>
<feComposite in2="hardAlpha" operator="out"/>
<feColorMatrix type="matrix" values="0 0 0 0 0 0 0 0 0 0 0 0 0 0 0 0 0 0 0.25 0"/>
<feBlend mode="normal" in2="BackgroundImageFix" result="effect1_dropShadow_1_2"/>
<feBlend mode="normal" in="SourceGraphic" in2="effect1_dropShadow_1_2" result="shape"/>
</filter>
<linearGradient id="paint0_linear_1_2" x1="250.465" y1="375.782" x2="252.88" y2="782.899" gradientUnits="userSpaceOnUse">
<stop offset="0.18707" stop-color="#35258D"/>
<stop offset="1" stop-color="#06BDFC"/>
</linearGradient>
</defs>
</svg>
