<svg width="1920" height="658" viewBox="0 0 1920 658" fill="none" xmlns="http://www.w3.org/2000/svg">
<g filter="url(#filter0_d_113_733)">
<mask id="path-1-inside-1_113_733" fill="white">
<path fill-rule="evenodd" clip-rule="evenodd" d="M1926 658H-6V88.25V65.9995V37.1457H84.6256L89.9565 30.978L105.949 47.719L115.723 37.1457H247.219L258.769 47.719H322.74L342.287 26.5724H408.035L417.808 15.9991L442.686 40.6702H587.931L593.728 46.8379L599.059 40.6702H859.386L874.49 56.5301L902.033 27.4536H926.022L937.112 37.1996H960.67V37.1457H1051.17L1056.49 30.978L1072.46 47.719L1082.22 37.1457H1213.54L1225.07 47.719H1288.95L1308.47 26.5724H1374.13L1383.89 15.9991L1408.73 40.6702H1553.77L1559.56 46.8379L1564.89 40.6702H1824.85L1839.93 56.5301L1867.44 27.4536H1891.39L1904.7 40.6702H1926V65.9995H1926V658ZM1559.56 46.8379L1568.44 56.5301H1550.69L1559.56 46.8379ZM593.728 46.8379L602.613 56.5301H584.843L593.728 46.8379Z"/>
</mask>
<path fill-rule="evenodd" clip-rule="evenodd" d="M1926 658H-6V88.25V65.9995V37.1457H84.6256L89.9565 30.978L105.949 47.719L115.723 37.1457H247.219L258.769 47.719H322.74L342.287 26.5724H408.035L417.808 15.9991L442.686 40.6702H587.931L593.728 46.8379L599.059 40.6702H859.386L874.49 56.5301L902.033 27.4536H926.022L937.112 37.1996H960.67V37.1457H1051.17L1056.49 30.978L1072.46 47.719L1082.22 37.1457H1213.54L1225.07 47.719H1288.95L1308.47 26.5724H1374.13L1383.89 15.9991L1408.73 40.6702H1553.77L1559.56 46.8379L1564.89 40.6702H1824.85L1839.93 56.5301L1867.44 27.4536H1891.39L1904.7 40.6702H1926V65.9995H1926V658ZM1559.56 46.8379L1568.44 56.5301H1550.69L1559.56 46.8379ZM593.728 46.8379L602.613 56.5301H584.843L593.728 46.8379Z" fill="url(#paint0_linear_113_733)"/>
<path d="M-6 658V664H-12V658H-6ZM1926 658H1932V664H1926V658ZM-6 37.1457H-12V31.1457H-6V37.1457ZM84.6256 37.1457L89.165 41.0692L87.3702 43.1457H84.6256V37.1457ZM89.9565 30.978L85.4171 27.0544L89.7345 22.0594L94.295 26.8334L89.9565 30.978ZM105.949 47.719L110.355 51.7917L106.021 56.4805L101.611 51.8636L105.949 47.719ZM115.723 37.1457L111.317 33.073L113.098 31.1457H115.723V37.1457ZM247.219 37.1457V31.1457H249.55L251.27 32.72L247.219 37.1457ZM258.769 47.719V53.719H256.437L254.718 52.1447L258.769 47.719ZM322.74 47.719L327.146 51.7917L325.365 53.719H322.74V47.719ZM342.287 26.5724L337.881 22.4997L339.662 20.5724H342.287V26.5724ZM408.035 26.5724L412.441 30.6451L410.659 32.5724H408.035V26.5724ZM417.808 15.9991L413.402 11.9264L417.62 7.36279L422.033 11.7388L417.808 15.9991ZM442.686 40.6702V46.6702H440.215L438.461 44.9305L442.686 40.6702ZM587.931 40.6702V34.6702H590.525L592.303 36.5607L587.931 40.6702ZM599.059 40.6702L594.52 36.7466L596.315 34.6702H599.059V40.6702ZM859.386 40.6702V34.6702H861.957L863.731 36.5323L859.386 40.6702ZM874.49 56.5301L878.846 60.6563L874.502 65.2425L870.145 60.668L874.49 56.5301ZM902.033 27.4536L897.677 23.3273L899.452 21.4536H902.033V27.4536ZM926.022 27.4536V21.4536H928.284L929.983 22.9467L926.022 27.4536ZM937.112 37.1996V43.1996H934.85L933.151 41.7065L937.112 37.1996ZM960.67 37.1996H966.67V43.1996H960.67V37.1996ZM960.67 37.1457H954.67V31.1457H960.67V37.1457ZM1051.17 37.1457L1055.71 41.066L1053.92 43.1457H1051.17V37.1457ZM1056.49 30.978L1051.95 27.0576L1056.27 22.0526L1060.83 26.8364L1056.49 30.978ZM1072.46 47.719L1076.87 51.7886L1072.54 56.4869L1068.12 51.8605L1072.46 47.719ZM1082.22 37.1457L1077.81 33.076L1079.6 31.1457H1082.22V37.1457ZM1213.54 37.1457V31.1457H1215.87L1217.59 32.7228L1213.54 37.1457ZM1225.07 47.719V53.719H1222.74L1221.02 52.1418L1225.07 47.719ZM1288.95 47.719L1293.36 51.7886L1291.58 53.719H1288.95V47.719ZM1308.47 26.5724L1304.06 22.5028L1305.84 20.5724H1308.47V26.5724ZM1374.13 26.5724L1378.54 30.6421L1376.76 32.5724H1374.13V26.5724ZM1383.89 15.9991L1379.48 11.9295L1383.7 7.35663L1388.12 11.7418L1383.89 15.9991ZM1408.73 40.6702V46.6702H1406.26L1404.5 44.9275L1408.73 40.6702ZM1553.77 40.6702V34.6702H1556.37L1558.15 36.5638L1553.77 40.6702ZM1564.89 40.6702L1560.34 36.7498L1562.14 34.6702H1564.89V40.6702ZM1824.85 40.6702V34.6702H1827.42L1829.2 36.5353L1824.85 40.6702ZM1839.93 56.5301L1844.29 60.6533L1839.95 65.2488L1835.59 60.6649L1839.93 56.5301ZM1867.44 27.4536L1863.08 23.3304L1864.85 21.4536H1867.44V27.4536ZM1891.39 27.4536V21.4536H1893.87L1895.62 23.1962L1891.39 27.4536ZM1904.7 40.6702V46.6702H1902.23L1900.47 44.9275L1904.7 40.6702ZM1926 40.6702V34.6702H1932V40.6702H1926ZM1926 65.9995V71.9995H1920V65.9995H1926ZM1926 65.9995V59.9995H1932V65.9995H1926ZM1568.44 56.5301L1572.86 52.4788L1582.06 62.5301H1568.44V56.5301ZM1550.69 56.5301V62.5301H1537.06L1546.26 52.4787L1550.69 56.5301ZM602.613 56.5301L607.036 52.4756L616.253 62.5301H602.613V56.5301ZM584.843 56.5301V62.5301H571.204L580.421 52.4756L584.843 56.5301ZM-6 652H1926V664H-6V652ZM0 88.25V658H-12V88.25H0ZM-12 88.25V65.9995H0V88.25H-12ZM-12 65.9995V37.1457H0V65.9995H-12ZM-6 31.1457H84.6256V43.1457H-6V31.1457ZM80.0862 33.2222L85.4171 27.0544L94.4959 34.9015L89.165 41.0692L80.0862 33.2222ZM94.295 26.8334L110.288 43.5744L101.611 51.8636L85.618 35.1226L94.295 26.8334ZM101.543 43.6463L111.317 33.073L120.129 41.2184L110.355 51.7917L101.543 43.6463ZM115.723 31.1457H247.219V43.1457H115.723V31.1457ZM251.27 32.72L262.82 43.2933L254.718 52.1447L243.167 41.5714L251.27 32.72ZM258.769 41.719H322.74V53.719H258.769V41.719ZM318.334 43.6463L337.881 22.4997L346.693 30.6451L327.146 51.7917L318.334 43.6463ZM342.287 20.5724H408.035V32.5724H342.287V20.5724ZM403.629 22.4997L413.402 11.9264L422.214 20.0718L412.441 30.6451L403.629 22.4997ZM422.033 11.7388L446.911 36.4099L438.461 44.9305L413.583 20.2594L422.033 11.7388ZM442.686 34.6702H587.931V46.6702H442.686V34.6702ZM592.303 36.5607L598.1 42.7285L589.357 50.9473L583.559 44.7796L592.303 36.5607ZM589.189 42.9144L594.52 36.7466L603.599 44.5937L598.268 50.7614L589.189 42.9144ZM599.059 34.6702H859.386V46.6702H599.059V34.6702ZM863.731 36.5323L878.835 52.3922L870.145 60.668L855.041 44.808L863.731 36.5323ZM870.134 52.4039L897.677 23.3273L906.389 31.5798L878.846 60.6563L870.134 52.4039ZM902.033 21.4536H926.022V33.4536H902.033V21.4536ZM929.983 22.9467L941.073 32.6927L933.151 41.7065L922.061 31.9604L929.983 22.9467ZM937.112 31.1996H960.67V43.1996H937.112V31.1996ZM954.67 37.1996V37.1457H966.67V37.1996H954.67ZM960.67 31.1457H1051.17V43.1457H960.67V31.1457ZM1046.63 33.2253L1051.95 27.0576L1061.04 34.8983L1055.71 41.066L1046.63 33.2253ZM1060.83 26.8364L1076.8 43.5775L1068.12 51.8605L1052.15 35.1195L1060.83 26.8364ZM1068.05 43.6494L1077.81 33.076L1086.63 41.2153L1076.87 51.7886L1068.05 43.6494ZM1082.22 31.1457H1213.54V43.1457H1082.22V31.1457ZM1217.59 32.7228L1229.12 43.2961L1221.02 52.1418L1209.48 41.5685L1217.59 32.7228ZM1225.07 41.719H1288.95V53.719H1225.07V41.719ZM1284.54 43.6494L1304.06 22.5028L1312.88 30.6421L1293.36 51.7886L1284.54 43.6494ZM1308.47 20.5724H1374.13V32.5724H1308.47V20.5724ZM1369.72 22.5028L1379.48 11.9295L1388.3 20.0688L1378.54 30.6421L1369.72 22.5028ZM1388.12 11.7418L1412.96 36.4128L1404.5 44.9275L1379.66 20.2565L1388.12 11.7418ZM1408.73 34.6702H1553.77V46.6702H1408.73V34.6702ZM1558.15 36.5638L1563.94 42.7315L1555.19 50.9443L1549.4 44.7766L1558.15 36.5638ZM1555.02 42.9175L1560.34 36.7498L1569.43 44.5905L1564.11 50.7582L1555.02 42.9175ZM1564.89 34.6702H1824.85V46.6702H1564.89V34.6702ZM1829.2 36.5353L1844.28 52.3953L1835.59 60.6649L1820.5 44.805L1829.2 36.5353ZM1835.57 52.4069L1863.08 23.3304L1871.8 31.5767L1844.29 60.6533L1835.57 52.4069ZM1867.44 21.4536H1891.39V33.4536H1867.44V21.4536ZM1895.62 23.1962L1908.93 36.4128L1900.47 44.9275L1887.17 31.7109L1895.62 23.1962ZM1904.7 34.6702H1926V46.6702H1904.7V34.6702ZM1932 40.6702V65.9995H1920V40.6702H1932ZM1926 71.9995H1926V59.9995H1926V71.9995ZM1920 658V65.9995H1932V658H1920ZM1564.01 60.5814L1555.14 50.8892L1563.99 42.7866L1572.86 52.4788L1564.01 60.5814ZM1550.69 50.5301H1568.44V62.5301H1550.69V50.5301ZM1563.99 50.8893L1555.12 60.5815L1546.26 52.4787L1555.14 42.7865L1563.99 50.8893ZM598.19 60.5845L589.305 50.8923L598.151 42.7834L607.036 52.4756L598.19 60.5845ZM584.843 50.5301H602.613V62.5301H584.843V50.5301ZM598.151 50.8923L589.266 60.5845L580.421 52.4756L589.305 42.7834L598.151 50.8923Z" fill="url(#paint1_linear_113_733)" mask="url(#path-1-inside-1_113_733)"/>
</g>
<circle cx="4.64968" cy="170.649" r="4.64968" fill="#002B31"/>
<circle cx="4.64968" cy="248.764" r="4.64968" fill="#002B31"/>
<circle cx="43.7085" cy="170.649" r="4.64968" fill="#002B31"/>
<circle cx="43.7085" cy="248.764" r="4.64968" fill="#002B31"/>
<circle cx="82.7635" cy="170.649" r="4.64968" fill="#002B31"/>
<circle cx="121.822" cy="170.649" r="4.64968" fill="#002B31"/>
<circle cx="82.7635" cy="248.764" r="4.64968" fill="#002B31"/>
<circle cx="121.822" cy="248.764" r="4.64968" fill="#002B31"/>
<circle cx="4.64968" cy="209.706" r="4.64968" fill="#002B31"/>
<circle cx="4.64968" cy="287.821" r="4.64968" fill="#002B31"/>
<circle cx="43.7085" cy="209.706" r="4.64968" fill="#002B31"/>
<circle cx="43.7085" cy="287.821" r="4.64968" fill="#002B31"/>
<circle cx="82.7635" cy="209.706" r="4.64968" fill="#002B31"/>
<circle cx="121.822" cy="209.706" r="4.64968" fill="#002B31"/>
<circle cx="82.7635" cy="287.821" r="4.64968" fill="#002B31"/>
<circle cx="121.822" cy="287.821" r="4.64968" fill="#002B31"/>
<circle cx="24.1771" cy="170.649" r="4.64968" fill="#002B31"/>
<circle cx="24.1771" cy="248.764" r="4.64968" fill="#002B31"/>
<circle cx="63.236" cy="170.649" r="4.64968" fill="#002B31"/>
<circle cx="63.236" cy="248.764" r="4.64968" fill="#002B31"/>
<circle cx="102.295" cy="170.649" r="4.64968" fill="#002B31"/>
<circle cx="141.35" cy="170.649" r="4.64968" fill="#002B31"/>
<circle cx="102.295" cy="248.764" r="4.64968" fill="#002B31"/>
<circle cx="141.35" cy="248.764" r="4.64968" fill="#002B31"/>
<circle cx="24.1771" cy="209.706" r="4.64968" fill="#002B31"/>
<circle cx="24.1771" cy="287.821" r="4.64968" fill="#002B31"/>
<circle cx="63.236" cy="209.706" r="4.64968" fill="#002B31"/>
<circle cx="63.236" cy="287.821" r="4.64968" fill="#002B31"/>
<circle cx="102.295" cy="209.706" r="4.64968" fill="#002B31"/>
<circle cx="141.35" cy="209.706" r="4.64968" fill="#002B31"/>
<circle cx="102.295" cy="287.821" r="4.64968" fill="#002B31"/>
<circle cx="141.35" cy="287.821" r="4.64968" fill="#002B31"/>
<circle cx="4.64968" cy="190.178" r="4.64968" fill="#002B31"/>
<circle cx="4.64968" cy="268.292" r="4.64968" fill="#002B31"/>
<circle cx="43.7085" cy="190.178" r="4.64968" fill="#002B31"/>
<circle cx="43.7085" cy="268.292" r="4.64968" fill="#002B31"/>
<circle cx="82.7635" cy="190.178" r="4.64968" fill="#002B31"/>
<circle cx="121.822" cy="190.178" r="4.64968" fill="#002B31"/>
<circle cx="82.7635" cy="268.292" r="4.64968" fill="#002B31"/>
<circle cx="121.822" cy="268.292" r="4.64968" fill="#002B31"/>
<circle cx="4.64968" cy="229.236" r="4.64968" fill="#002B31"/>
<circle cx="4.64968" cy="307.35" r="4.64968" fill="#002B31"/>
<circle cx="43.7085" cy="229.236" r="4.64968" fill="#002B31"/>
<circle cx="43.7085" cy="307.35" r="4.64968" fill="#002B31"/>
<circle cx="82.7635" cy="229.236" r="4.64968" fill="#002B31"/>
<circle cx="121.822" cy="229.236" r="4.64968" fill="#002B31"/>
<circle cx="82.7635" cy="307.35" r="4.64968" fill="#002B31"/>
<circle cx="121.822" cy="307.35" r="4.64968" fill="#002B31"/>
<circle cx="24.1771" cy="190.178" r="4.64968" fill="#002B31"/>
<circle cx="24.1771" cy="268.292" r="4.64968" fill="#002B31"/>
<circle cx="63.236" cy="190.178" r="4.64968" fill="#002B31"/>
<circle cx="63.236" cy="268.292" r="4.64968" fill="#002B31"/>
<circle cx="102.295" cy="190.178" r="4.64968" fill="#002B31"/>
<circle cx="141.35" cy="190.178" r="4.64968" fill="#002B31"/>
<circle cx="102.295" cy="268.292" r="4.64968" fill="#002B31"/>
<circle cx="141.35" cy="268.292" r="4.64968" fill="#002B31"/>
<circle cx="24.1771" cy="229.236" r="4.64968" fill="#002B31"/>
<circle cx="24.1771" cy="307.35" r="4.64968" fill="#002B31"/>
<circle cx="63.236" cy="229.236" r="4.64968" fill="#002B31"/>
<circle cx="63.236" cy="307.35" r="4.64968" fill="#002B31"/>
<circle cx="102.295" cy="229.236" r="4.64968" fill="#002B31"/>
<circle cx="141.35" cy="229.236" r="4.64968" fill="#002B31"/>
<circle cx="102.295" cy="307.35" r="4.64968" fill="#002B31"/>
<circle cx="141.35" cy="307.35" r="4.64968" fill="#002B31"/>
<circle cx="1778.65" cy="417.649" r="4.64968" fill="#00454F"/>
<circle cx="1778.65" cy="495.764" r="4.64968" fill="#00454F"/>
<circle cx="1817.71" cy="417.649" r="4.64968" fill="#00454F"/>
<circle cx="1817.71" cy="495.764" r="4.64968" fill="#00454F"/>
<circle cx="1856.76" cy="417.649" r="4.64968" fill="#00454F"/>
<circle cx="1895.82" cy="417.649" r="4.64968" fill="#00454F"/>
<circle cx="1856.76" cy="495.764" r="4.64968" fill="#00454F"/>
<circle cx="1895.82" cy="495.764" r="4.64968" fill="#00454F"/>
<circle cx="1778.65" cy="456.706" r="4.64968" fill="#00454F"/>
<circle cx="1778.65" cy="534.821" r="4.64968" fill="#00454F"/>
<circle cx="1817.71" cy="456.706" r="4.64968" fill="#00454F"/>
<circle cx="1817.71" cy="534.821" r="4.64968" fill="#00454F"/>
<circle cx="1856.76" cy="456.706" r="4.64968" fill="#00454F"/>
<circle cx="1895.82" cy="456.706" r="4.64968" fill="#00454F"/>
<circle cx="1856.76" cy="534.821" r="4.64968" fill="#00454F"/>
<circle cx="1895.82" cy="534.821" r="4.64968" fill="#00454F"/>
<circle cx="1798.18" cy="417.649" r="4.64968" fill="#00454F"/>
<circle cx="1798.18" cy="495.764" r="4.64968" fill="#00454F"/>
<circle cx="1837.24" cy="417.649" r="4.64968" fill="#00454F"/>
<circle cx="1837.24" cy="495.764" r="4.64968" fill="#00454F"/>
<circle cx="1876.29" cy="417.649" r="4.64968" fill="#00454F"/>
<circle cx="1915.35" cy="417.649" r="4.64968" fill="#00454F"/>
<circle cx="1876.29" cy="495.764" r="4.64968" fill="#00454F"/>
<circle cx="1915.35" cy="495.764" r="4.64968" fill="#00454F"/>
<circle cx="1798.18" cy="456.706" r="4.64968" fill="#00454F"/>
<circle cx="1798.18" cy="534.821" r="4.64968" fill="#00454F"/>
<circle cx="1837.24" cy="456.706" r="4.64968" fill="#00454F"/>
<circle cx="1837.24" cy="534.821" r="4.64968" fill="#00454F"/>
<circle cx="1876.29" cy="456.706" r="4.64968" fill="#00454F"/>
<circle cx="1915.35" cy="456.706" r="4.64968" fill="#00454F"/>
<circle cx="1876.29" cy="534.821" r="4.64968" fill="#00454F"/>
<circle cx="1915.35" cy="534.821" r="4.64968" fill="#00454F"/>
<circle cx="1778.65" cy="437.178" r="4.64968" fill="#00454F"/>
<circle cx="1778.65" cy="515.292" r="4.64968" fill="#00454F"/>
<circle cx="1817.71" cy="437.178" r="4.64968" fill="#00454F"/>
<circle cx="1817.71" cy="515.292" r="4.64968" fill="#00454F"/>
<circle cx="1856.76" cy="437.178" r="4.64968" fill="#00454F"/>
<circle cx="1895.82" cy="437.178" r="4.64968" fill="#00454F"/>
<circle cx="1856.76" cy="515.292" r="4.64968" fill="#00454F"/>
<circle cx="1895.82" cy="515.292" r="4.64968" fill="#00454F"/>
<circle cx="1778.65" cy="476.236" r="4.64968" fill="#00454F"/>
<circle cx="1778.65" cy="554.35" r="4.64968" fill="#00454F"/>
<circle cx="1817.71" cy="476.236" r="4.64968" fill="#00454F"/>
<circle cx="1817.71" cy="554.35" r="4.64968" fill="#00454F"/>
<circle cx="1856.76" cy="476.236" r="4.64968" fill="#00454F"/>
<circle cx="1895.82" cy="476.236" r="4.64968" fill="#00454F"/>
<circle cx="1856.76" cy="554.35" r="4.64968" fill="#00454F"/>
<circle cx="1895.82" cy="554.35" r="4.64968" fill="#00454F"/>
<circle cx="1798.18" cy="437.178" r="4.64968" fill="#00454F"/>
<circle cx="1798.18" cy="515.292" r="4.64968" fill="#00454F"/>
<circle cx="1837.24" cy="437.178" r="4.64968" fill="#00454F"/>
<circle cx="1837.24" cy="515.292" r="4.64968" fill="#00454F"/>
<circle cx="1876.29" cy="437.178" r="4.64968" fill="#00454F"/>
<circle cx="1915.35" cy="437.178" r="4.64968" fill="#00454F"/>
<circle cx="1876.29" cy="515.292" r="4.64968" fill="#00454F"/>
<circle cx="1915.35" cy="515.292" r="4.64968" fill="#00454F"/>
<circle cx="1798.18" cy="476.236" r="4.64968" fill="#00454F"/>
<circle cx="1798.18" cy="554.35" r="4.64968" fill="#00454F"/>
<circle cx="1837.24" cy="476.236" r="4.64968" fill="#00454F"/>
<circle cx="1837.24" cy="554.35" r="4.64968" fill="#00454F"/>
<circle cx="1876.29" cy="476.236" r="4.64968" fill="#00454F"/>
<circle cx="1915.35" cy="476.236" r="4.64968" fill="#00454F"/>
<circle cx="1876.29" cy="554.35" r="4.64968" fill="#00454F"/>
<circle cx="1915.35" cy="554.35" r="4.64968" fill="#00454F"/>
<defs>
<filter id="filter0_d_113_733" x="-26" y="-0.000976562" width="1972" height="682" filterUnits="userSpaceOnUse" color-interpolation-filters="sRGB">
<feFlood flood-opacity="0" result="BackgroundImageFix"/>
<feColorMatrix in="SourceAlpha" type="matrix" values="0 0 0 0 0 0 0 0 0 0 0 0 0 0 0 0 0 0 127 0" result="hardAlpha"/>
<feOffset dy="4"/>
<feGaussianBlur stdDeviation="10"/>
<feComposite in2="hardAlpha" operator="out"/>
<feColorMatrix type="matrix" values="0 0 0 0 0 0 0 0 0 0 0 0 0 0 0 0 0 0 0.25 0"/>
<feBlend mode="normal" in2="BackgroundImageFix" result="effect1_dropShadow_113_733"/>
<feBlend mode="normal" in="SourceGraphic" in2="effect1_dropShadow_113_733" result="shape"/>
</filter>
<linearGradient id="paint0_linear_113_733" x1="-6" y1="324.872" x2="1926" y2="324.872" gradientUnits="userSpaceOnUse">
<stop/>
<stop offset="1" stop-color="#2F2B3A"/>
</linearGradient>
<linearGradient id="paint1_linear_113_733" x1="476.663" y1="634.145" x2="479.323" y2="15.999" gradientUnits="userSpaceOnUse">
<stop offset="0.18707" stop-color="#35258D"/>
<stop offset="1" stop-color="#06BDFC"/>
</linearGradient>
</defs>
</svg>
