<svg width="1336" height="660" viewBox="0 0 1336 660" fill="none" xmlns="http://www.w3.org/2000/svg">
<path d="M43.0116 455L28.9912 469.021L14.9884 455L4 465.989L18.0028 480.009L4 494.012L14.9884 505L28.9912 490.997L43.0116 505L54 494.012L39.9797 480.009L54 465.989L43.0116 455Z" fill="#FF6EA9" fill-opacity="0.2"/>
<path d="M827.012 32L812.991 46.0203L798.988 32L788 42.9884L802.003 57.0087L788 71.0116L798.988 82L812.991 67.9972L827.012 82L838 71.0116L823.98 57.0087L838 42.9884L827.012 32Z" fill="#00C0C4" fill-opacity="0.2"/>
<path d="M1324.01 508L1309.99 522.021L1295.99 508L1285 518.989L1299 533.009L1285 547.012L1295.99 558L1309.99 543.997L1324.01 558L1335 547.012L1320.98 533.009L1335 518.989L1324.01 508Z" fill="#FCCE0D" fill-opacity="0.2"/>
<path opacity="0.4" d="M42.9201 451L28.8232 465.003L14.7087 451L3.64647 461.989L17.761 476.009L1 488.259L12.0623 499.248L28.8232 486.997L42.9201 501L54 490.012L39.8855 476.009L54 461.989L42.9201 451Z" fill="#FF6EA9" fill-opacity="0.2" stroke="#FF6EA9" stroke-linecap="round" stroke-linejoin="round"/>
<path opacity="0.4" d="M826.92 28L812.823 42.0028L798.709 28L787.646 38.9884L801.761 53.0087L785 65.259L796.062 76.2475L812.823 63.9972L826.92 78L838 67.0116L823.885 53.0087L838 38.9884L826.92 28Z" fill="#00C0C4" fill-opacity="0.2" stroke="#00C0C4" stroke-linecap="round" stroke-linejoin="round"/>
<path opacity="0.4" d="M1323.92 504L1309.82 518.003L1295.71 504L1284.65 514.989L1298.76 529.009L1282 541.259L1293.06 552.248L1309.82 539.997L1323.92 554L1335 543.012L1320.89 529.009L1335 514.989L1323.92 504Z" fill="#FCCE0D" fill-opacity="0.2" stroke="#FCCE0D" stroke-linecap="round" stroke-linejoin="round"/>
<path d="M534.843 231.664L534.859 233.164L534.843 231.664ZM816.532 446.781L816.532 445.281L816.532 446.781ZM1088.02 186.501C1088.42 185.772 1088.15 184.862 1087.42 184.469L1075.53 178.059C1074.81 177.666 1073.9 177.938 1073.5 178.668C1073.11 179.397 1073.38 180.306 1074.11 180.7L1084.67 186.397L1078.97 196.958C1078.58 197.687 1078.85 198.597 1079.58 198.991C1080.31 199.384 1081.22 199.112 1081.61 198.383L1088.02 186.501ZM295.713 471.911C297.082 470.532 298.446 469.124 299.805 467.689L297.626 465.627C296.283 467.045 294.936 468.435 293.584 469.797L295.713 471.911ZM305.796 461.154C308.376 458.253 310.938 455.26 313.485 452.187L311.176 450.273C308.649 453.321 306.109 456.287 303.554 459.16L305.796 461.154ZM319.061 445.309C321.477 442.263 323.883 439.15 326.279 435.981L323.885 434.172C321.502 437.325 319.111 440.418 316.711 443.444L319.061 445.309ZM331.563 428.882C333.867 425.741 336.164 422.554 338.456 419.327L336.011 417.589C333.726 420.805 331.438 423.981 329.144 427.107L331.563 428.882ZM343.547 412.092C345.778 408.892 348.007 405.661 350.234 402.406L347.759 400.711C345.535 403.961 343.311 407.185 341.086 410.376L343.547 412.092ZM355.197 395.118C357.39 391.883 359.584 388.63 361.781 385.367L359.292 383.692C357.097 386.953 354.904 390.203 352.714 393.434L355.197 395.118ZM366.704 378.049C368.889 374.8 371.078 371.546 373.273 368.296L370.786 366.617C368.59 369.87 366.4 373.125 364.215 376.375L366.704 378.049ZM378.217 360.996C380.421 357.753 382.632 354.519 384.853 351.3L382.384 349.596C380.158 352.822 377.943 356.062 375.736 359.309L378.217 360.996ZM389.877 344.068C392.129 340.851 394.392 337.656 396.667 334.489L394.23 332.739C391.947 335.917 389.678 339.122 387.42 342.347L389.877 344.068ZM401.846 327.361C404.175 324.193 406.519 321.06 408.879 317.97L406.495 316.149C404.123 319.255 401.768 322.403 399.429 325.584L401.846 327.361ZM414.274 311.019C416.714 307.929 419.172 304.889 421.651 301.908L419.344 299.99C416.848 302.992 414.374 306.052 411.92 309.16L414.274 311.019ZM427.337 295.217C429.924 292.243 432.534 289.338 435.169 286.511L432.974 284.466C430.314 287.32 427.681 290.251 425.074 293.249L427.337 295.217ZM441.236 280.189C444.01 277.386 446.813 274.674 449.647 272.063L447.614 269.856C444.744 272.501 441.907 275.246 439.103 278.079L441.236 280.189ZM456.193 266.264C459.196 263.712 462.234 261.277 465.311 258.971L463.512 256.57C460.383 258.916 457.296 261.389 454.25 263.979L456.193 266.264ZM472.43 253.918C475.691 251.732 478.996 249.694 482.349 247.816L480.882 245.199C477.456 247.118 474.083 249.198 470.759 251.426L472.43 253.918ZM490.085 243.812C493.603 242.142 497.173 240.649 500.798 239.349L499.785 236.525C496.062 237.86 492.401 239.391 488.798 241.102L490.085 243.812ZM509.089 236.74C512.803 235.735 516.576 234.931 520.413 234.341L519.957 231.376C516.007 231.983 512.124 232.811 508.305 233.845L509.089 236.74ZM529.042 233.389C530.964 233.26 532.903 233.184 534.859 233.164L534.827 230.164C532.815 230.185 530.819 230.263 528.84 230.396L529.042 233.389ZM534.859 233.164C536.892 233.142 538.911 233.2 540.915 233.334L541.115 230.34C539.034 230.202 536.938 230.142 534.827 230.164L534.859 233.164ZM549.888 234.448C553.838 235.165 557.737 236.173 561.59 237.447L562.532 234.598C558.554 233.283 554.519 232.24 550.424 231.496L549.888 234.448ZM570.065 240.702C573.721 242.299 577.337 244.13 580.918 246.171L582.404 243.565C578.738 241.475 575.027 239.596 571.267 237.953L570.065 240.702ZM588.678 250.952C592.012 253.157 595.316 255.536 598.595 258.07L600.429 255.697C597.098 253.121 593.734 250.699 590.334 248.45L588.678 250.952ZM605.696 263.829C608.758 266.425 611.798 269.148 614.821 271.982L616.873 269.793C613.818 266.929 610.74 264.173 607.636 261.541L605.696 263.829ZM621.414 278.361C624.273 281.21 627.117 284.148 629.947 287.163L632.134 285.109C629.283 282.073 626.417 279.111 623.532 276.236L621.414 278.361ZM636.18 293.938C638.897 296.951 641.604 300.024 644.303 303.146L646.573 301.184C643.862 298.048 641.141 294.959 638.407 291.929L636.18 293.938ZM650.294 310.164C652.921 313.279 655.542 316.43 658.159 319.608L660.474 317.701C657.851 314.516 655.223 311.355 652.587 308.23L650.294 310.164ZM663.993 326.737C666.577 329.911 669.158 333.101 671.739 336.297L674.073 334.412C671.491 331.215 668.907 328.021 666.32 324.843L663.993 326.737ZM677.539 343.482C680.12 346.679 682.704 349.873 685.291 353.053L687.618 351.159C685.034 347.984 682.454 344.793 679.873 341.597L677.539 343.482ZM691.135 360.198C693.755 363.382 696.382 366.543 699.015 369.669L701.309 367.736C698.685 364.621 696.066 361.469 693.451 358.292L691.135 360.198ZM705.025 376.72C707.733 379.857 710.451 382.948 713.182 385.982L715.411 383.974C712.697 380.959 709.992 377.883 707.296 374.759L705.025 376.72ZM719.448 392.809C722.294 395.848 725.157 398.815 728.037 401.695L730.158 399.573C727.303 396.719 724.464 393.776 721.637 390.758L719.448 392.809ZM734.685 408.15C737.733 411.02 740.804 413.783 743.901 416.424L745.847 414.141C742.792 411.535 739.757 408.805 736.741 405.966L734.685 408.15ZM751.091 422.289C754.412 424.874 757.767 427.309 761.157 429.572L762.823 427.078C759.499 424.858 756.203 422.466 752.933 419.922L751.091 422.289ZM769.063 434.494C772.717 436.602 776.416 438.502 780.164 440.17L781.384 437.43C777.739 435.807 774.133 433.956 770.562 431.895L769.063 434.494ZM788.873 443.587C792.842 444.934 796.867 446.012 800.952 446.793L801.515 443.847C797.573 443.093 793.682 442.052 789.837 440.746L788.873 443.587ZM810.249 448.04C812.328 448.2 814.422 448.281 816.532 448.281L816.532 445.281C814.5 445.281 812.482 445.203 810.479 445.049L810.249 448.04ZM816.532 448.281C818.655 448.281 820.755 448.178 822.831 447.974L822.538 444.988C820.559 445.182 818.557 445.281 816.532 445.281L816.532 448.281ZM832.094 446.38C836.127 445.385 840.068 444.013 843.928 442.301L842.712 439.559C839.001 441.205 835.226 442.517 831.375 443.468L832.094 446.38ZM852.26 438.02C855.756 435.976 859.188 433.659 862.566 431.096L860.753 428.706C857.461 431.204 854.128 433.453 850.746 435.429L852.26 438.02ZM869.774 425.196C872.801 422.539 875.789 419.691 878.745 416.675L876.603 414.575C873.693 417.544 870.759 420.339 867.795 422.942L869.774 425.196ZM885.087 409.9C887.778 406.899 890.448 403.766 893.1 400.517L890.776 398.62C888.15 401.837 885.51 404.935 882.854 407.897L885.087 409.9ZM898.859 393.256C901.327 390.058 903.786 386.766 906.238 383.396L903.812 381.631C901.374 384.982 898.933 388.25 896.484 391.423L898.859 393.256ZM911.613 375.873C913.941 372.56 916.267 369.183 918.594 365.754L916.112 364.069C913.792 367.487 911.476 370.85 909.158 374.148L911.613 375.873ZM923.725 358.118C925.977 354.738 928.233 351.316 930.496 347.863L927.986 346.219C925.726 349.667 923.475 353.082 921.229 356.455L923.725 358.118ZM935.537 340.144C937.759 336.734 939.992 333.297 942.236 329.851L939.722 328.214C937.475 331.665 935.246 335.095 933.024 338.506L935.537 340.144ZM947.263 322.146C949.495 318.734 951.742 315.316 954.007 311.901L951.506 310.243C949.238 313.665 946.987 317.088 944.753 320.503L947.263 322.146ZM959.115 304.253C961.396 300.864 963.696 297.485 966.02 294.124L963.552 292.418C961.221 295.79 958.913 299.18 956.626 302.577L959.115 304.253ZM971.286 286.597C973.651 283.26 976.04 279.948 978.458 276.669L976.044 274.889C973.614 278.184 971.213 281.511 968.838 284.862L971.286 286.597ZM983.972 269.321C986.458 266.067 988.974 262.855 991.524 259.693L989.189 257.81C986.621 260.993 984.089 264.227 981.588 267.5L983.972 269.321ZM997.356 252.627C999.999 249.499 1002.68 246.432 1005.4 243.433L1003.18 241.417C1000.43 244.444 997.729 247.538 995.065 250.69L997.356 252.627ZM1011.66 236.73C1014.5 233.78 1017.39 230.909 1020.32 228.129L1018.26 225.951C1015.29 228.765 1012.37 231.668 1009.5 234.648L1011.66 236.73ZM1027.08 221.963C1030.16 219.266 1033.28 216.672 1036.46 214.19L1034.62 211.824C1031.39 214.344 1028.22 216.975 1025.1 219.707L1027.08 221.963ZM1043.78 208.753C1047.12 206.403 1050.51 204.179 1053.96 202.092L1052.41 199.524C1048.89 201.65 1045.44 203.913 1042.06 206.301L1043.78 208.753ZM1061.9 197.602C1065.49 195.711 1069.14 193.969 1072.86 192.384L1071.69 189.624C1067.89 191.241 1064.16 193.02 1060.5 194.948L1061.9 197.602ZM1081.35 189.102C1083.26 188.435 1085.19 187.809 1087.13 187.226L1086.27 184.352C1084.28 184.948 1082.31 185.588 1080.36 186.27L1081.35 189.102ZM534.843 231.664L534.874 234.664L534.843 231.664ZM816.532 446.781L816.532 443.781L816.532 446.781ZM1089.34 187.213C1090.13 185.755 1089.59 183.935 1088.13 183.149L1064.37 170.33C1062.91 169.543 1061.09 170.088 1060.3 171.546C1059.51 173.004 1060.06 174.824 1061.52 175.611L1082.64 187.005L1071.24 208.128C1070.46 209.586 1071 211.406 1072.46 212.192C1073.92 212.979 1075.74 212.435 1076.53 210.976L1089.34 187.213ZM296.777 472.968C298.155 471.58 299.528 470.163 300.894 468.721L296.537 464.595C295.202 466.005 293.863 467.387 292.519 468.74L296.777 472.968ZM306.917 462.151C309.51 459.235 312.083 456.229 314.64 453.145L310.021 449.316C307.504 452.352 304.975 455.305 302.433 458.164L306.917 462.151ZM320.236 446.241C322.661 443.185 325.073 440.063 327.475 436.885L322.689 433.267C320.312 436.412 317.928 439.496 315.536 442.512L320.236 446.241ZM332.772 429.769C335.081 426.622 337.383 423.428 339.679 420.196L334.788 416.721C332.507 419.931 330.223 423.1 327.935 426.22L332.772 429.769ZM344.777 412.95C347.011 409.746 349.243 406.511 351.472 403.253L346.521 399.864C344.299 403.111 342.078 406.331 339.856 409.518L344.777 412.95ZM356.439 395.959C358.633 392.723 360.828 389.468 363.025 386.205L358.048 382.854C355.853 386.115 353.662 389.363 351.472 392.593L356.439 395.959ZM367.949 378.886C370.134 375.637 372.322 372.385 374.516 369.135L369.543 365.777C367.346 369.032 365.155 372.288 362.97 375.537L367.949 378.886ZM379.457 361.839C381.66 358.599 383.87 355.367 386.088 352.151L381.149 348.744C378.921 351.974 376.704 355.217 374.495 358.466L379.457 361.839ZM391.106 344.928C393.355 341.716 395.614 338.526 397.885 335.364L393.012 331.864C390.725 335.047 388.452 338.258 386.191 341.487L391.106 344.928ZM403.054 328.25C405.379 325.088 407.717 321.963 410.072 318.88L405.303 315.238C402.925 318.353 400.565 321.507 398.22 324.695L403.054 328.25ZM415.452 311.948C417.884 308.867 420.334 305.838 422.804 302.867L418.191 299.031C415.686 302.044 413.204 305.113 410.742 308.231L415.452 311.948ZM428.469 296.202C431.045 293.24 433.643 290.348 436.266 287.534L431.877 283.443C429.204 286.311 426.56 289.254 423.942 292.264L428.469 296.202ZM442.302 281.245C445.061 278.456 447.847 275.761 450.663 273.166L446.598 268.753C443.709 271.415 440.856 274.175 438.037 277.024L442.302 281.245ZM457.165 267.407C460.146 264.873 463.16 262.458 466.211 260.171L462.613 255.37C459.457 257.735 456.347 260.228 453.279 262.836L457.165 267.407ZM473.265 255.164C476.495 252.999 479.766 250.982 483.082 249.125L480.149 243.89C476.686 245.83 473.279 247.931 469.924 250.18L473.265 255.164ZM490.729 245.167C494.204 243.517 497.728 242.044 501.305 240.76L499.278 235.113C495.507 236.466 491.8 238.016 488.154 239.748L490.729 245.167ZM509.481 238.188C513.142 237.197 516.861 236.405 520.641 235.824L519.73 229.893C515.723 230.509 511.785 231.348 507.913 232.397L509.481 238.188ZM529.142 234.886C531.037 234.759 532.947 234.684 534.874 234.664L534.811 228.664C532.771 228.685 530.747 228.765 528.739 228.9L529.142 234.886ZM534.874 234.664C536.869 234.643 538.849 234.699 540.815 234.83L541.214 228.844C539.096 228.702 536.961 228.641 534.811 228.664L534.874 234.664ZM549.62 235.924C553.498 236.628 557.329 237.617 561.119 238.871L563.003 233.174C558.962 231.838 554.86 230.777 550.692 230.02L549.62 235.924ZM569.464 242.076C573.067 243.651 576.636 245.457 580.176 247.474L583.147 242.262C579.439 240.148 575.68 238.245 571.867 236.578L569.464 242.076ZM587.851 252.203C591.151 254.386 594.425 256.743 597.677 259.257L601.347 254.51C597.989 251.914 594.595 249.47 591.161 247.199L587.851 252.203ZM604.726 264.973C607.767 267.552 610.789 270.258 613.795 273.076L617.899 268.699C614.827 265.82 611.731 263.046 608.606 260.397L604.726 264.973ZM620.355 279.423C623.201 282.259 626.033 285.186 628.854 288.19L633.228 284.082C630.367 281.036 627.488 278.061 624.591 275.173L620.355 279.423ZM635.066 294.943C637.775 297.947 640.475 301.012 643.168 304.127L647.707 300.203C644.99 297.06 642.262 293.963 639.521 290.924L635.066 294.943ZM649.147 311.132C651.77 314.24 654.387 317.387 657.001 320.561L661.632 316.747C659.006 313.559 656.374 310.393 653.734 307.263L649.147 311.132ZM662.83 327.684C665.412 330.856 667.991 334.044 670.572 337.24L675.24 333.47C672.657 330.272 670.072 327.077 667.483 323.896L662.83 327.684ZM676.372 344.425C678.954 347.622 681.539 350.818 684.127 353.999L688.781 350.213C686.2 347.04 683.62 343.851 681.04 340.655L676.372 344.425ZM689.977 361.151C692.6 364.339 695.23 367.505 697.868 370.636L702.457 366.77C699.836 363.66 697.221 360.512 694.609 357.339L689.977 361.151ZM703.889 377.7C706.603 380.844 709.329 383.943 712.067 386.985L716.526 382.971C713.819 379.964 711.122 376.896 708.431 373.779L703.889 377.7ZM718.353 393.835C721.21 396.884 724.083 399.863 726.976 402.756L731.219 398.513C728.377 395.671 725.549 392.74 722.732 389.733L718.353 393.835ZM733.657 409.243C736.721 412.127 739.81 414.907 742.928 417.565L746.821 413C743.785 410.411 740.769 407.698 737.769 404.874L733.657 409.243ZM750.169 423.473C753.517 426.078 756.901 428.534 760.324 430.82L763.656 425.83C760.364 423.632 757.098 421.262 753.854 418.738L750.169 423.473ZM768.313 435.793C772.009 437.925 775.755 439.85 779.554 441.541L781.994 436.059C778.401 434.46 774.841 432.632 771.311 430.596L768.313 435.793ZM788.39 445.008C792.421 446.376 796.513 447.472 800.67 448.266L801.797 442.373C797.927 441.633 794.102 440.61 790.319 439.326L788.39 445.008ZM810.134 449.535C812.251 449.698 814.383 449.781 816.532 449.781L816.532 443.781C814.538 443.781 812.559 443.704 810.594 443.553L810.134 449.535ZM816.532 449.781C818.704 449.781 820.852 449.675 822.977 449.467L822.392 443.495C820.461 443.685 818.508 443.781 816.532 443.781L816.532 449.781ZM832.454 447.837C836.577 446.819 840.601 445.418 844.536 443.672L842.104 438.188C838.468 439.8 834.775 441.083 831.016 442.012L832.454 447.837ZM853.017 439.315C856.57 437.238 860.052 434.886 863.473 432.291L859.846 427.511C856.597 429.976 853.314 432.191 849.989 434.134L853.017 439.315ZM870.764 426.324C873.822 423.639 876.837 420.765 879.817 417.725L875.531 413.525C872.645 416.471 869.738 419.24 866.805 421.815L870.764 426.324ZM886.204 410.902C888.912 407.882 891.597 404.731 894.262 401.466L889.614 397.671C887 400.873 884.377 403.953 881.737 406.896L886.204 410.902ZM900.046 394.173C902.525 390.962 904.991 387.659 907.451 384.278L902.599 380.749C900.168 384.089 897.736 387.346 895.296 390.507L900.046 394.173ZM912.84 376.735C915.174 373.414 917.504 370.031 919.835 366.596L914.871 363.227C912.555 366.639 910.243 369.996 907.931 373.286L912.84 376.735ZM924.974 358.949C927.228 355.565 929.486 352.14 931.75 348.685L926.732 345.396C924.473 348.843 922.224 352.255 919.98 355.623L924.974 358.949ZM936.794 340.963C939.015 337.553 941.251 334.113 943.493 330.67L938.465 327.396C936.217 330.848 933.989 334.276 931.767 337.688L936.794 340.963ZM948.518 322.967C950.749 319.557 952.994 316.142 955.257 312.73L950.256 309.414C947.985 312.839 945.733 316.265 943.498 319.682L948.518 322.967ZM960.359 305.09C962.637 301.706 964.934 298.332 967.254 294.976L962.318 291.565C959.983 294.943 957.671 298.338 955.382 301.74L960.359 305.09ZM972.509 287.464C974.869 284.134 977.254 280.83 979.665 277.56L974.837 273.998C972.4 277.302 969.994 280.637 967.614 283.995L972.509 287.464ZM985.164 270.232C987.643 266.987 990.151 263.785 992.692 260.635L988.022 256.868C985.445 260.063 982.904 263.306 980.396 266.589L985.164 270.232ZM998.502 253.595C1001.13 250.48 1003.8 247.425 1006.51 244.441L1002.07 240.41C999.308 243.45 996.594 246.557 993.919 249.722L998.502 253.595ZM1012.74 237.77C1015.57 234.836 1018.44 231.981 1021.36 229.217L1017.23 224.863C1014.24 227.693 1011.31 230.612 1008.42 233.608L1012.74 237.77ZM1028.07 223.09C1031.12 220.412 1034.23 217.836 1037.39 215.373L1033.69 210.642C1030.44 213.18 1027.25 215.83 1024.11 218.58L1028.07 223.09ZM1044.65 209.978C1047.95 207.648 1051.31 205.444 1054.74 203.376L1051.64 198.24C1048.08 200.385 1044.6 202.668 1041.19 205.076L1044.65 209.978ZM1062.6 198.928C1066.15 197.057 1069.77 195.332 1073.45 193.765L1071.1 188.243C1067.26 189.878 1063.49 191.675 1059.8 193.621L1062.6 198.928ZM1081.84 190.518C1083.73 189.858 1085.64 189.239 1087.56 188.663L1085.84 182.915C1083.83 183.517 1081.84 184.164 1079.86 184.854L1081.84 190.518Z" fill="#50477C"/>
<path d="M228 399H303V409H228V399Z" fill="url(#paint0_linear_113_1144)"/>
<path d="M310 399H320V409H310V399Z" fill="url(#paint1_linear_113_1144)"/>
<path d="M337 399H327V409H337V399Z" fill="url(#paint2_linear_113_1144)"/>
<path d="M342.499 364.056L345.321 366.891L346.499 365.718V364.056H342.499ZM326.731 379.752V383.752H328.383L329.553 382.587L326.731 379.752ZM252.571 379.752H248.571V383.752H252.571V379.752ZM252.571 367.872V363.872H248.571V367.872H252.571ZM306.499 367.872V371.872H310.499V367.872H306.499ZM306.499 355.92H310.499V351.92H306.499V355.92ZM250.267 355.92L247.426 358.736L248.6 359.92H250.267V355.92ZM234.499 340.008H230.499V341.654L231.658 342.824L234.499 340.008ZM234.499 323.592L231.671 320.764L230.499 321.935V323.592H234.499ZM250.267 307.824V303.824H248.61L247.439 304.996L250.267 307.824ZM326.731 307.824L329.566 305.002L328.393 303.824H326.731V307.824ZM342.427 323.592H346.427V321.941L345.262 320.77L342.427 323.592ZM342.427 331.728V335.728H346.427V331.728H342.427ZM306.499 331.728H302.499V335.728H306.499V331.728ZM306.499 319.848H310.499V315.848H306.499V319.848ZM270.571 319.848V315.848H266.571V319.848H270.571ZM270.571 343.68H266.571V347.68H270.571V343.68ZM326.731 343.68L329.572 340.865L328.399 339.68H326.731V343.68ZM342.499 359.592H346.499V357.946L345.34 356.777L342.499 359.592ZM339.677 361.221L323.909 376.917L329.553 382.587L345.321 366.891L339.677 361.221ZM326.731 375.752H252.571V383.752H326.731V375.752ZM256.571 379.752V367.872H248.571V379.752H256.571ZM252.571 371.872H306.499V363.872H252.571V371.872ZM310.499 367.872V355.92H302.499V367.872H310.499ZM306.499 351.92H250.267V359.92H306.499V351.92ZM253.108 353.105L237.34 337.193L231.658 342.824L247.426 358.736L253.108 353.105ZM238.499 340.008V323.592H230.499V340.008H238.499ZM237.328 326.421L253.096 310.653L247.439 304.996L231.671 320.764L237.328 326.421ZM250.267 311.824H326.731V303.824H250.267V311.824ZM323.896 310.646L339.592 326.414L345.262 320.77L329.566 305.002L323.896 310.646ZM338.427 323.592V331.728H346.427V323.592H338.427ZM342.427 327.728H306.499V335.728H342.427V327.728ZM310.499 331.728V319.848H302.499V331.728H310.499ZM306.499 315.848H270.571V323.848H306.499V315.848ZM266.571 319.848V343.68H274.571V319.848H266.571ZM270.571 347.68H326.731V339.68H270.571V347.68ZM323.89 346.496L339.658 362.408L345.34 356.777L329.572 340.865L323.89 346.496ZM338.499 359.592V364.056H346.499V359.592H338.499ZM457.246 363.984L460.075 366.813L461.246 365.641V363.984H457.246ZM441.478 379.752V383.752H443.135L444.307 382.581L441.478 379.752ZM365.014 379.752L362.186 382.581L363.357 383.752H365.014V379.752ZM349.246 363.984H345.246V365.641L346.418 366.813L349.246 363.984ZM349.246 323.592L346.418 320.764L345.246 321.935V323.592H349.246ZM365.014 307.824V303.824H363.357L362.186 304.996L365.014 307.824ZM385.174 307.824H389.174V303.824H385.174V307.824ZM385.174 367.728H381.174V371.728H385.174V367.728ZM421.174 367.728V371.728H425.174V367.728H421.174ZM421.174 319.992H425.174V315.992H421.174V319.992ZM403.318 319.992H399.318V323.992H403.318V319.992ZM403.318 307.824V303.824H399.318V307.824H403.318ZM441.478 307.824L444.307 304.996L443.135 303.824H441.478V307.824ZM457.246 323.592H461.246V321.935L460.075 320.764L457.246 323.592ZM454.418 361.156L438.65 376.924L444.307 382.581L460.075 366.813L454.418 361.156ZM441.478 375.752H365.014V383.752H441.478V375.752ZM367.843 376.924L352.075 361.156L346.418 366.813L362.186 382.581L367.843 376.924ZM353.246 363.984V323.592H345.246V363.984H353.246ZM352.075 326.421L367.843 310.653L362.186 304.996L346.418 320.764L352.075 326.421ZM365.014 311.824H385.174V303.824H365.014V311.824ZM381.174 307.824V367.728H389.174V307.824H381.174ZM385.174 371.728H421.174V363.728H385.174V371.728ZM425.174 367.728V319.992H417.174V367.728H425.174ZM421.174 315.992H403.318V323.992H421.174V315.992ZM407.318 319.992V307.824H399.318V319.992H407.318ZM403.318 311.824H441.478V303.824H403.318V311.824ZM438.65 310.653L454.418 326.421L460.075 320.764L444.307 304.996L438.65 310.653ZM453.246 323.592V363.984H461.246V323.592H453.246ZM556.523 379.752V383.752H560.523V379.752H556.523ZM482.363 379.752L479.535 382.581L480.706 383.752H482.363V379.752ZM466.595 363.984H462.595V365.641L463.767 366.813L466.595 363.984ZM466.595 323.592L463.767 320.764L462.595 321.935V323.592H466.595ZM482.363 307.824V303.824H480.706L479.535 304.996L482.363 307.824ZM502.523 307.824H506.523V303.824H502.523V307.824ZM502.523 367.584H498.523V371.584H502.523V367.584ZM556.523 367.584H560.523V363.584H556.523V367.584ZM556.523 375.752H482.363V383.752H556.523V375.752ZM485.191 376.924L469.423 361.156L463.767 366.813L479.535 382.581L485.191 376.924ZM470.595 363.984V323.592H462.595V363.984H470.595ZM469.423 326.421L485.191 310.653L479.535 304.996L463.767 320.764L469.423 326.421ZM482.363 311.824H502.523V303.824H482.363V311.824ZM498.523 307.824V367.584H506.523V307.824H498.523ZM502.523 371.584H556.523V363.584H502.523V371.584ZM552.523 367.584V379.752H560.523V367.584H552.523ZM665.364 363.984L668.199 366.806L669.364 365.636V363.984H665.364ZM649.668 379.752V383.752H651.33L652.503 382.574L649.668 379.752ZM611.508 379.752H607.508V383.752H611.508V379.752ZM611.508 367.872V363.872H607.508V367.872H611.508ZM629.436 367.872V371.872H633.436V367.872H629.436ZM629.436 307.896V303.896H625.436V307.896H629.436ZM665.364 307.896H669.364V303.896H665.364V307.896ZM593.364 379.752V383.752H597.364V379.752H593.364ZM573.204 379.752L570.369 382.574L571.542 383.752H573.204V379.752ZM557.508 363.984H553.508V365.636L554.673 366.806L557.508 363.984ZM557.508 307.896V303.896H553.508V307.896H557.508ZM593.364 307.896H597.364V303.896H593.364V307.896ZM662.529 361.162L646.833 376.93L652.503 382.574L668.199 366.806L662.529 361.162ZM649.668 375.752H611.508V383.752H649.668V375.752ZM615.508 379.752V367.872H607.508V379.752H615.508ZM611.508 371.872H629.436V363.872H611.508V371.872ZM633.436 367.872V307.896H625.436V367.872H633.436ZM629.436 311.896H665.364V303.896H629.436V311.896ZM661.364 307.896V363.984H669.364V307.896H661.364ZM593.364 375.752H573.204V383.752H593.364V375.752ZM576.039 376.93L560.343 361.162L554.673 366.806L570.369 382.574L576.039 376.93ZM561.508 363.984V307.896H553.508V363.984H561.508ZM557.508 311.896H593.364V303.896H557.508V311.896ZM589.364 307.896V379.752H597.364V307.896H589.364ZM764.924 319.848V323.848H768.924V319.848H764.924ZM747.068 319.848V315.848H743.068V319.848H747.068ZM747.068 363.984L749.89 366.819L751.068 365.646V363.984H747.068ZM731.228 379.752V383.752H732.879L734.05 382.587L731.228 379.752ZM711.068 379.752H707.068V383.752H711.068V379.752ZM711.068 319.848H715.068V315.848H711.068V319.848ZM675.068 319.848H671.068V323.848H675.068V319.848ZM675.068 307.896V303.896H671.068V307.896H675.068ZM764.924 307.896H768.924V303.896H764.924V307.896ZM764.924 315.848H747.068V323.848H764.924V315.848ZM743.068 319.848V363.984H751.068V319.848H743.068ZM744.246 361.149L728.406 376.917L734.05 382.587L749.89 366.819L744.246 361.149ZM731.228 375.752H711.068V383.752H731.228V375.752ZM715.068 379.752V319.848H707.068V379.752H715.068ZM711.068 315.848H675.068V323.848H711.068V315.848ZM679.068 319.848V307.896H671.068V319.848H679.068ZM675.068 311.896H764.924V303.896H675.068V311.896ZM760.924 307.896V319.848H768.924V307.896H760.924ZM806.616 379.752V383.752H810.616V379.752H806.616ZM786.456 379.752L783.621 382.574L784.794 383.752H786.456V379.752ZM770.76 363.984H766.76V365.636L767.925 366.806L770.76 363.984ZM770.76 307.824V303.824H766.76V307.824H770.76ZM790.92 307.824L793.755 305.002L792.582 303.824H790.92V307.824ZM806.616 323.592H810.616V321.941L809.451 320.77L806.616 323.592ZM806.616 375.752H786.456V383.752H806.616V375.752ZM789.291 376.93L773.595 361.162L767.925 366.806L783.621 382.574L789.291 376.93ZM774.76 363.984V307.824H766.76V363.984H774.76ZM770.76 311.824H790.92V303.824H770.76V311.824ZM788.085 310.646L803.781 326.414L809.451 320.77L793.755 305.002L788.085 310.646ZM802.616 323.592V379.752H810.616V323.592H802.616ZM924.248 363.984L927.076 366.813L928.248 365.641V363.984H924.248ZM908.48 379.752V383.752H910.137L911.308 382.581L908.48 379.752ZM832.016 379.752L829.187 382.581L830.359 383.752H832.016V379.752ZM816.248 363.984H812.248V365.641L813.419 366.813L816.248 363.984ZM816.248 323.592L813.419 320.764L812.248 321.935V323.592H816.248ZM832.016 307.824V303.824H830.359L829.187 304.996L832.016 307.824ZM852.176 307.824H856.176V303.824H852.176V307.824ZM852.176 367.728H848.176V371.728H852.176V367.728ZM888.176 367.728V371.728H892.176V367.728H888.176ZM888.176 319.992H892.176V315.992H888.176V319.992ZM870.32 319.992H866.32V323.992H870.32V319.992ZM870.32 307.824V303.824H866.32V307.824H870.32ZM908.48 307.824L911.308 304.996L910.137 303.824H908.48V307.824ZM924.248 323.592H928.248V321.935L927.076 320.764L924.248 323.592ZM921.419 361.156L905.651 376.924L911.308 382.581L927.076 366.813L921.419 361.156ZM908.48 375.752H832.016V383.752H908.48V375.752ZM834.844 376.924L819.076 361.156L813.419 366.813L829.187 382.581L834.844 376.924ZM820.248 363.984V323.592H812.248V363.984H820.248ZM819.076 326.421L834.844 310.653L829.187 304.996L813.419 320.764L819.076 326.421ZM832.016 311.824H852.176V303.824H832.016V311.824ZM848.176 307.824V367.728H856.176V307.824H848.176ZM852.176 371.728H888.176V363.728H852.176V371.728ZM892.176 367.728V319.992H884.176V367.728H892.176ZM888.176 315.992H870.32V323.992H888.176V315.992ZM874.32 319.992V307.824H866.32V319.992H874.32ZM870.32 311.824H908.48V303.824H870.32V311.824ZM905.651 310.653L921.419 326.421L927.076 320.764L911.308 304.996L905.651 310.653ZM920.248 323.592V363.984H928.248V323.592H920.248ZM1041.6 352.032L1044.42 354.867L1045.6 353.694V352.032H1041.6ZM1025.83 367.728V371.728H1027.48L1028.65 370.563L1025.83 367.728ZM1005.67 367.728H1001.67V371.728H1005.67V367.728ZM1005.67 319.992H1009.67V315.992H1005.67V319.992ZM987.669 319.992H983.669V323.992H987.669V319.992ZM987.669 307.824V303.824H983.669V307.824H987.669ZM1025.83 307.824L1028.66 304.996L1027.49 303.824H1025.83V307.824ZM1041.6 323.592H1045.6V321.935L1044.42 320.764L1041.6 323.592ZM969.525 363.984L972.359 366.806L973.525 365.636V363.984H969.525ZM953.829 379.752V383.752H955.491L956.663 382.574L953.829 379.752ZM933.669 379.752H929.669V383.752H933.669V379.752ZM933.669 307.896V303.896H929.669V307.896H933.669ZM969.525 307.896H973.525V303.896H969.525V307.896ZM1038.77 349.197L1023.01 364.893L1028.65 370.563L1044.42 354.867L1038.77 349.197ZM1025.83 363.728H1005.67V371.728H1025.83V363.728ZM1009.67 367.728V319.992H1001.67V367.728H1009.67ZM1005.67 315.992H987.669V323.992H1005.67V315.992ZM991.669 319.992V307.824H983.669V319.992H991.669ZM987.669 311.824H1025.83V303.824H987.669V311.824ZM1023 310.653L1038.77 326.421L1044.42 320.764L1028.66 304.996L1023 310.653ZM1037.6 323.592V352.032H1045.6V323.592H1037.6ZM966.69 361.162L950.994 376.93L956.663 382.574L972.359 366.806L966.69 361.162ZM953.829 375.752H933.669V383.752H953.829V375.752ZM937.669 379.752V307.896H929.669V379.752H937.669ZM933.669 311.896H969.525V303.896H933.669V311.896ZM965.525 307.896V363.984H973.525V307.896H965.525ZM1156.13 364.056L1158.95 366.891L1160.13 365.718V364.056H1156.13ZM1140.36 379.752V383.752H1142.02L1143.19 382.587L1140.36 379.752ZM1066.2 379.752H1062.2V383.752H1066.2V379.752ZM1066.2 367.872V363.872H1062.2V367.872H1066.2ZM1120.13 367.872V371.872H1124.13V367.872H1120.13ZM1120.13 355.92H1124.13V351.92H1120.13V355.92ZM1063.9 355.92L1061.06 358.736L1062.23 359.92H1063.9V355.92ZM1048.13 340.008H1044.13V341.654L1045.29 342.824L1048.13 340.008ZM1048.13 323.592L1045.3 320.764L1044.13 321.935V323.592H1048.13ZM1063.9 307.824V303.824H1062.24L1061.07 304.996L1063.9 307.824ZM1140.36 307.824L1143.2 305.002L1142.03 303.824H1140.36V307.824ZM1156.06 323.592H1160.06V321.941L1158.9 320.77L1156.06 323.592ZM1156.06 331.728V335.728H1160.06V331.728H1156.06ZM1120.13 331.728H1116.13V335.728H1120.13V331.728ZM1120.13 319.848H1124.13V315.848H1120.13V319.848ZM1084.2 319.848V315.848H1080.2V319.848H1084.2ZM1084.2 343.68H1080.2V347.68H1084.2V343.68ZM1140.36 343.68L1143.21 340.865L1142.03 339.68H1140.36V343.68ZM1156.13 359.592H1160.13V357.946L1158.97 356.777L1156.13 359.592ZM1153.31 361.221L1137.54 376.917L1143.19 382.587L1158.95 366.891L1153.31 361.221ZM1140.36 375.752H1066.2V383.752H1140.36V375.752ZM1070.2 379.752V367.872H1062.2V379.752H1070.2ZM1066.2 371.872H1120.13V363.872H1066.2V371.872ZM1124.13 367.872V355.92H1116.13V367.872H1124.13ZM1120.13 351.92H1063.9V359.92H1120.13V351.92ZM1066.74 353.105L1050.97 337.193L1045.29 342.824L1061.06 358.736L1066.74 353.105ZM1052.13 340.008V323.592H1044.13V340.008H1052.13ZM1050.96 326.421L1066.73 310.653L1061.07 304.996L1045.3 320.764L1050.96 326.421ZM1063.9 311.824H1140.36V303.824H1063.9V311.824ZM1137.53 310.646L1153.23 326.414L1158.9 320.77L1143.2 305.002L1137.53 310.646ZM1152.06 323.592V331.728H1160.06V323.592H1152.06ZM1156.06 327.728H1120.13V335.728H1156.06V327.728ZM1124.13 331.728V319.848H1116.13V331.728H1124.13ZM1120.13 315.848H1084.2V323.848H1120.13V315.848ZM1080.2 319.848V343.68H1088.2V319.848H1080.2ZM1084.2 347.68H1140.36V339.68H1084.2V347.68ZM1137.52 346.496L1153.29 362.408L1158.97 356.777L1143.21 340.865L1137.52 346.496ZM1152.13 359.592V364.056H1160.13V359.592H1152.13Z" fill="#34248A"/>
<path d="M336 355.056L320.232 370.752H246.072V358.872H300V346.92H243.768L228 331.008V314.592L243.768 298.824H320.232L335.928 314.592V322.728H300V310.848H264.072V334.68H320.232L336 350.592V355.056ZM658.865 354.984L643.169 370.752H605.009V358.872H622.937V298.896H658.865V354.984ZM586.865 370.752H566.705L551.009 354.984V298.896H586.865V370.752ZM1035.1 343.032L1019.33 358.728H999.169V310.992H981.169V298.824H1019.33L1035.1 314.592V343.032ZM963.025 354.984L947.329 370.752H927.169V298.896H963.025V354.984Z" fill="#7873A3"/>
<path d="M450.747 354.984L434.979 370.752H358.515L342.747 354.984V314.592L358.515 298.824H378.675V358.728H414.675V310.992H396.819V298.824H434.979L450.747 314.592V354.984ZM550.024 370.752H475.864L460.096 354.984V314.592L475.864 298.824H496.024V358.584H550.024V370.752ZM758.425 310.848H740.569V354.984L724.729 370.752H704.569V310.848H668.569V298.896H758.425V310.848ZM800.117 370.752H779.957L764.261 354.984V298.824H784.421L800.117 314.592V370.752ZM917.749 354.984L901.981 370.752H825.517L809.749 354.984V314.592L825.517 298.824H845.677V358.728H881.677V310.992H863.821V298.824H901.981L917.749 314.592V354.984ZM1149.63 355.056L1133.87 370.752H1059.71V358.872H1113.63V346.92H1057.4L1041.63 331.008V314.592L1057.4 298.824H1133.87L1149.56 314.592V322.728H1113.63V310.848H1077.71V334.68H1133.87L1149.63 350.592V355.056Z" fill="white"/>
<path d="M468.336 138L474.312 120.312H477.696L483.672 138H481.392L479.88 133.392H472.128L470.64 138H468.336ZM472.776 131.472H479.256L476.28 122.376H475.728L472.776 131.472ZM485.976 138V125.448H488.088V127.704L490.272 125.448H493.488V127.56H490.368L488.088 129.912V138H485.976ZM495.726 138V125.448H497.838V127.704L500.022 125.448H504.654L506.862 127.68L509.022 125.448H513.654L516.174 127.968V138H514.062V128.496L512.79 127.128H509.574L507.15 129.576V138H505.038L505.062 128.496L503.766 127.128H500.574L497.838 129.912V138H495.726ZM521.862 142.488L524.118 137.136H523.23L518.07 125.448H520.398L524.43 135.048H524.982L528.702 125.448H531.006L523.998 142.488H521.862ZM538.136 138V135.984H540.296V122.328H538.136V120.312H544.64V122.328H542.48V135.984H544.64V138H538.136ZM548.085 138V125.448H550.197V127.704L552.381 125.448H557.013L559.509 127.968V138H557.397V128.496L556.125 127.128H552.933L550.197 129.912V138H548.085ZM563.32 138V136.248H569.968L571.096 135.096V133.584L569.896 132.384H564.928L562.72 130.224V127.68L564.928 125.448H572.008V127.224H565.936L564.832 128.304V129.528L565.984 130.68H571L573.208 132.84V135.792L571.024 138H563.32ZM578.89 138L576.682 135.816V127.128H575.362V125.448H576.73L577.258 122.232H578.794V125.448H581.458V127.128H578.794V135.072L579.922 136.248H582.01V138H578.89ZM584.577 124.08V121.248H586.689V124.08H584.577ZM584.577 138V125.448H586.689V138H584.577ZM592.953 138L590.745 135.816V127.128H589.425V125.448H590.793L591.321 122.232H592.857V125.448H595.521V127.128H592.857V135.072L593.985 136.248H596.073V138H592.953ZM601.016 138L598.52 135.48V125.448H600.632L600.608 134.976L601.904 136.32H605.024L607.496 133.848V125.448H609.608V138H607.496V136.056L605.576 138H601.016ZM615.875 138L613.667 135.816V127.128H612.347V125.448H613.715L614.243 122.232H615.779V125.448H618.443V127.128H615.779V135.072L616.907 136.248H618.995V138H615.875ZM623.794 138L621.274 135.48V127.968L623.794 125.448H629.386L631.906 127.968V132.504H623.386V134.928L624.706 136.248H631.69V138H623.794ZM623.386 130.824H629.794V128.448L628.474 127.128H624.706L623.386 128.448V130.824ZM643.106 138L640.586 135.48V127.968L643.106 125.448H649.058L651.578 127.968V135.48L649.058 138H643.106ZM644.018 136.32H648.146L649.466 135L649.442 128.448L648.146 127.128H644.018L642.698 128.448V135L644.018 136.32ZM655.314 138V127.128H654.018V125.448H655.314V122.52L657.522 120.312H660.642V122.064H658.554L657.426 123.24V125.448H660.114V127.128H657.426V138H655.314ZM671.427 138V122.328H666.171V120.312H678.867V122.328H673.611V138H671.427ZM681.005 138L678.485 135.48V127.968L681.005 125.448H686.597L689.117 127.968V132.504H680.597V134.928L681.917 136.248H688.901V138H681.005ZM680.597 130.824H687.005V128.448L685.685 127.128H681.917L680.597 128.448V130.824ZM694.997 138L692.477 135.48V127.968L694.997 125.448H700.733L702.941 127.632V129.624H700.829V128.328L699.629 127.128H695.909L694.589 128.448V134.904L695.909 136.248H702.821V138H694.997ZM706.171 138V120.312H708.283V127.44L710.203 125.448H714.835L717.331 127.968V138H715.219V128.496L713.947 127.128H710.755L708.283 129.648V138H706.171ZM721.148 138V125.448H723.26V127.704L725.444 125.448H730.076L732.572 127.968V138H730.46V128.496L729.188 127.128H725.996L723.26 129.912V138H721.148ZM738.614 138L736.094 135.48V127.968L738.614 125.448H744.566L747.086 127.968V135.48L744.566 138H738.614ZM739.526 136.32H743.654L744.974 135L744.95 128.448L743.654 127.128H739.526L738.206 128.448V135L739.526 136.32ZM750.726 138V120.312H752.838V138H750.726ZM758.981 138L756.461 135.48V127.968L758.981 125.448H764.933L767.453 127.968V135.48L764.933 138H758.981ZM759.893 136.32H764.021L765.341 135L765.317 128.448L764.021 127.128H759.893L758.573 128.448V135L759.893 136.32ZM771.672 142.488V140.736L778.44 140.712L779.76 139.416V136.032L777.816 138H773.208L770.688 135.48V127.968L773.208 125.448H777.816L779.76 127.44V125.448H781.872V139.968L779.352 142.488H771.672ZM777.288 136.32L779.76 133.824V129.648L777.288 127.128H774.12L772.8 128.448V135L774.12 136.32H777.288ZM787.924 142.488L790.18 137.136H789.292L784.132 125.448H786.46L790.492 135.048H791.044L794.764 125.448H797.068L790.06 142.488H787.924ZM797.943 140.64L798.903 135.168H801.015L799.167 140.64H797.943ZM810.166 138V120.312H819.502L821.998 122.832V128.904L819.502 131.424H812.35V138H810.166ZM812.35 129.48H818.518L819.814 128.16V123.576L818.518 122.232L812.35 122.256V129.48ZM826.532 138L824.036 135.48V125.448H826.148L826.124 134.976L827.42 136.32H830.54L833.012 133.848V125.448H835.124V138H833.012V136.056L831.092 138H826.532ZM839.038 138V125.448H841.15V127.704L843.334 125.448H847.966L850.462 127.968V138H848.35V128.496L847.078 127.128H843.886L841.15 129.912V138H839.038ZM856.505 138L853.985 135.48V127.968L856.505 125.448H862.097L864.617 127.968V132.504H856.097V134.928L857.417 136.248H864.401V138H856.505ZM856.097 130.824H862.505V128.448L861.185 127.128H857.417L856.097 128.448V130.824Z" fill="#7873A3"/>
<path d="M560.28 183V168.048H555.36V165.312H568.2V168.048H563.28V183H560.28ZM570.49 183V165.312H582.586V168.048H573.49V172.368H581.794V175.104H573.49V180.264H582.586V183H570.49ZM587.885 183L585.221 180.336V167.976L587.885 165.312H596.237L598.661 167.736L596.765 169.656L595.013 167.952H589.277L588.221 169.008L588.245 179.304L589.277 180.36H595.229L596.981 178.632L598.877 180.576L596.453 183H587.885ZM601.287 183V165.312H604.287V172.416H612.039V165.312H615.039V183H612.039V175.056H604.287V183H601.287ZM618.889 183V165.312H622.753L629.761 177.672V165.312H632.785V183H629.497L622.489 170.64H621.889V183H618.889ZM636.151 183V180.264H637.951V168.048H636.151V165.312H642.751V168.048H640.951V180.264H642.751V183H636.151ZM648.284 183L645.62 180.336V167.976L648.284 165.312H656.636L659.06 167.736L657.164 169.656L655.412 167.952H649.676L648.62 169.008L648.644 179.304L649.676 180.36H655.628L657.38 178.632L659.276 180.576L656.852 183H648.284ZM660.006 183L665.766 165.312H670.254L676.014 183H672.822L671.502 178.704H664.518L663.198 183H660.006ZM665.31 176.064H670.686L668.286 168.168H667.71L665.31 176.064ZM678.162 183V165.312H681.162V180.264H689.73V183H678.162ZM697.592 183V165.312H707.768L710.432 167.976V172.128L709.28 173.424L711.224 175.344V180.336L708.56 183H697.592ZM700.592 172.416H706.376L707.408 171.216V169.008L706.352 167.952H700.592V172.416ZM700.592 180.36H707.144L708.2 179.304V176.112L707.144 175.056H700.592V180.36ZM716.51 183L713.846 180.336V167.976L716.51 165.312H725.174L727.838 167.976V180.336L725.174 183H716.51ZM717.926 180.36H723.782L724.838 179.304L724.814 169.008L723.782 167.952H717.902L716.846 169.008L716.87 179.304L717.926 180.36ZM729.263 183L735.023 165.312H739.511L745.271 183H742.079L740.759 178.704H733.775L732.455 183H729.263ZM734.567 176.064H739.943L737.543 168.168H736.967L734.567 176.064ZM747.42 183V165.312H757.716L760.38 167.976V173.832L757.956 176.256L760.956 183H757.548L754.764 176.496H750.42V183H747.42ZM750.42 173.856H756.324L757.38 172.8V169.008L756.324 167.952H750.42V173.856ZM764.084 183V165.312H774.284L778.004 169.032V179.28L774.284 183H764.084ZM767.084 180.36H772.868L774.98 178.248V170.064L772.868 167.952H767.084V180.36Z" fill="white"/>
<defs>
<linearGradient id="paint0_linear_113_1144" x1="228" y1="404" x2="337" y2="404" gradientUnits="userSpaceOnUse">
<stop stop-color="#35258D"/>
<stop offset="0.9999" stop-color="#35258D" stop-opacity="0"/>
</linearGradient>
<linearGradient id="paint1_linear_113_1144" x1="228" y1="404" x2="337" y2="404" gradientUnits="userSpaceOnUse">
<stop stop-color="#35258D"/>
<stop offset="0.9999" stop-color="#35258D" stop-opacity="0"/>
</linearGradient>
<linearGradient id="paint2_linear_113_1144" x1="228" y1="404" x2="337" y2="404" gradientUnits="userSpaceOnUse">
<stop stop-color="#35258D"/>
<stop offset="0.9999" stop-color="#35258D" stop-opacity="0"/>
</linearGradient>
</defs>
</svg>
