<svg viewBox="0 0 67 68" fill="none" xmlns="http://www.w3.org/2000/svg">
<path d="M33.2305 0.680664C14.9884 0.680664 0.201202 15.4679 0.201202 33.7099C0.201202 50.2708 12.3874 63.9829 28.2827 66.3709C29.8962 66.6137 31.2022 67.0024 32.8834 67.0024C34.4011 67.0024 36.2427 66.6368 37.7076 66.4387C53.8325 64.2538 66.2597 50.4343 66.2597 33.7099C66.2597 15.4679 51.4725 0.680664 33.2305 0.680664Z" fill="#06BDFC"/>
<path d="M36.8045 35.12H43.8983L45.0125 27.8065H36.8045V23.809C36.8045 20.7713 37.7831 18.0771 40.583 18.0771H45.0824V11.6955C44.2916 11.587 42.6196 11.3506 39.4606 11.3506C32.863 11.3506 28.9954 14.8863 28.9954 22.9425V27.8079H22.2128V35.1214H28.994V55.2549C30.3371 55.458 31.698 55.5651 33.0946 55.5651C34.3568 55.5651 35.5889 55.4789 36.8045 55.3119V35.12Z" fill="#1E1B25"/>
</svg>
