<svg viewBox="0 0 67 67" fill="none" xmlns="http://www.w3.org/2000/svg">
<path d="M52.3427 66.0232L15.6629 66.058C7.59336 66.0654 0.985489 59.4703 0.976319 51.4008L0.941473 14.721C0.934137 6.6514 7.52917 0.0435337 15.5987 0.0343638L52.2785 -0.000482167C60.3481 -0.00781813 66.956 6.58721 66.9651 14.6568L67 51.3366C67.0092 59.408 60.4123 66.0159 52.3427 66.0232Z" fill="#06BDFC"/>
<path d="M34.9839 46.7457C27.9065 46.7457 22.146 40.987 22.146 33.9078C22.146 26.8286 27.9065 21.0698 34.9839 21.0698C42.0613 21.0698 47.8218 26.8286 47.8218 33.9078C47.8218 40.987 42.0613 46.7457 34.9839 46.7457ZM34.9839 24.7378C29.9276 24.7378 25.8139 28.8514 25.8139 33.9078C25.8139 38.9641 29.9276 43.0777 34.9839 43.0777C40.0402 43.0777 44.1539 38.9641 44.1539 33.9078C44.1539 28.8514 40.0402 24.7378 34.9839 24.7378Z" fill="#1E1B25"/>
<path d="M48.7048 22.6157C50.2241 22.6157 51.4558 21.3841 51.4558 19.8648C51.4558 18.3454 50.2241 17.1138 48.7048 17.1138C47.1855 17.1138 45.9538 18.3454 45.9538 19.8648C45.9538 21.3841 47.1855 22.6157 48.7048 22.6157Z" fill="#1E1B25"/>
<path d="M45.9499 57.4611H23.942C16.8646 57.4611 11.1041 51.7024 11.1041 44.6232V22.6153C11.1041 15.5361 16.8646 9.77734 23.942 9.77734H45.9499C53.0273 9.77734 58.7878 15.5361 58.7878 22.6153V44.6232C58.7878 51.7024 53.0273 57.4611 45.9499 57.4611ZM23.942 13.4453C18.8857 13.4453 14.772 17.559 14.772 22.6153V44.6232C14.772 49.6795 18.8857 53.7931 23.942 53.7931H45.9499C51.0062 53.7931 55.1198 49.6795 55.1198 44.6232V22.6153C55.1198 17.559 51.0062 13.4453 45.9499 13.4453H23.942Z" fill="#1E1B25"/>
</svg>
