<svg width="178" height="74" viewBox="0 0 178 74" fill="none" xmlns="http://www.w3.org/2000/svg">
<g filter="url(#filter0_d_223_117)">
<mask id="path-1-inside-1_223_117" fill="white">
<path fill-rule="evenodd" clip-rule="evenodd" d="M11 3C7.68629 3 5 5.68629 5 9V56.1907C5 56.5984 5.04066 56.9967 5.11816 57.3815H5V64.1848H20.75L21.6765 65.0059L24.4559 62.7773L26.1544 64.1848H49.0073L51.0147 62.7773H62.1323L65.5294 65.5924H76.9559L78.6544 67L82.9779 63.7157H108.22L109.228 62.8946L110.154 63.7157H155.397L157.293 62.1907H158.747L162.809 65.4751H166.978L168.905 64.1777H173V57.3815H172.882C172.959 56.9967 173 56.5984 173 56.1908V9C173 5.68629 170.314 3 167 3H11ZM110.07 62.1907L109.228 62.8946L108.386 62.1907H110.07Z"/>
</mask>
<path fill-rule="evenodd" clip-rule="evenodd" d="M11 3C7.68629 3 5 5.68629 5 9V56.1907C5 56.5984 5.04066 56.9967 5.11816 57.3815H5V64.1848H20.75L21.6765 65.0059L24.4559 62.7773L26.1544 64.1848H49.0073L51.0147 62.7773H62.1323L65.5294 65.5924H76.9559L78.6544 67L82.9779 63.7157H108.22L109.228 62.8946L110.154 63.7157H155.397L157.293 62.1907H158.747L162.809 65.4751H166.978L168.905 64.1777H173V57.3815H172.882C172.959 56.9967 173 56.5984 173 56.1908V9C173 5.68629 170.314 3 167 3H11ZM110.07 62.1907L109.228 62.8946L108.386 62.1907H110.07Z" fill="url(#paint0_linear_223_117)" shape-rendering="crispEdges"/>
<path d="M5.11816 57.3815V60.3815H8.78241L8.05913 56.7894L5.11816 57.3815ZM5 57.3815V54.3815H2V57.3815H5ZM5 64.1848H2V67.1848H5V64.1848ZM20.75 64.1848L22.7398 61.9397L21.8881 61.1848H20.75V64.1848ZM21.6765 65.0059L19.6867 67.2511L21.5797 68.9288L23.5532 67.3464L21.6765 65.0059ZM24.4559 62.7773L26.3701 60.4674L24.4871 58.9069L22.5792 60.4368L24.4559 62.7773ZM26.1544 64.1848L24.2402 66.4948L25.0729 67.1848H26.1544V64.1848ZM49.0073 64.1848V67.1848H49.9544L50.7297 66.6411L49.0073 64.1848ZM51.0147 62.7773V59.7773H50.0677L49.2923 60.321L51.0147 62.7773ZM62.1323 62.7773L64.0466 60.4674L63.2139 59.7773H62.1323V62.7773ZM65.5294 65.5924L63.6152 67.9023L64.4479 68.5924H65.5294V65.5924ZM76.9559 65.5924L78.8701 63.2825L78.0374 62.5924H76.9559V65.5924ZM78.6544 67L76.7402 69.3099L78.5733 70.8291L80.4691 69.3889L78.6544 67ZM82.9779 63.7157V60.7157H81.9677L81.1632 61.3268L82.9779 63.7157ZM108.22 63.7157V66.7157H109.288L110.116 66.0412L108.22 63.7157ZM110.154 63.7157L108.165 65.9608L109.016 66.7157H110.154V63.7157ZM155.397 63.7157V66.7157H156.454L157.277 66.0533L155.397 63.7157ZM157.293 62.1907V59.1907H156.236L155.413 59.8531L157.293 62.1907ZM158.747 62.1907L160.634 59.858L159.808 59.1907H158.747V62.1907ZM162.809 65.4751L160.922 67.8079L161.748 68.4751H162.809V65.4751ZM166.978 65.4751V68.4751H167.894L168.653 67.9638L166.978 65.4751ZM168.905 64.1777V61.1777H167.99L167.23 61.689L168.905 64.1777ZM173 64.1777V67.1777H176V64.1777H173ZM173 57.3815H176V54.3815H173V57.3815ZM172.882 57.3815L169.941 56.7893L169.217 60.3815H172.882V57.3815ZM110.07 62.1907L111.994 64.4928L118.339 59.1907H110.07V62.1907ZM108.386 62.1907V59.1907H100.117L106.462 64.4928L108.386 62.1907ZM8 9C8 7.34314 9.34314 6 11 6V0C6.02944 0 2 4.02943 2 9H8ZM8 56.1907V9H2V56.1907H8ZM8.05913 56.7894C8.02067 56.5984 8 56.3985 8 56.1907H2C2 56.7984 2.06065 57.395 2.17718 57.9737L8.05913 56.7894ZM5 60.3815H5.11816V54.3815H5V60.3815ZM8 64.1848V57.3815H2V64.1848H8ZM20.75 61.1848H5V67.1848H20.75V61.1848ZM23.6663 62.7608L22.7398 61.9397L18.7602 66.43L19.6867 67.2511L23.6663 62.7608ZM22.5792 60.4368L19.7997 62.6654L23.5532 67.3464L26.3326 65.1178L22.5792 60.4368ZM28.0686 61.8749L26.3701 60.4674L22.5416 65.0872L24.2402 66.4948L28.0686 61.8749ZM49.0073 61.1848H26.1544V67.1848H49.0073V61.1848ZM49.2923 60.321L47.285 61.7286L50.7297 66.6411L52.7371 65.2336L49.2923 60.321ZM62.1323 59.7773H51.0147V65.7773H62.1323V59.7773ZM67.4436 63.2825L64.0466 60.4674L60.2181 65.0872L63.6152 67.9023L67.4436 63.2825ZM76.9559 62.5924H65.5294V68.5924H76.9559V62.5924ZM80.5686 64.6901L78.8701 63.2825L75.0416 67.9023L76.7402 69.3099L80.5686 64.6901ZM81.1632 61.3268L76.8397 64.6111L80.4691 69.3889L84.7927 66.1045L81.1632 61.3268ZM108.22 60.7157H82.9779V66.7157H108.22V60.7157ZM107.333 60.569L106.325 61.3901L110.116 66.0412L111.123 65.2201L107.333 60.569ZM112.144 61.4705L111.218 60.6494L107.238 65.1397L108.165 65.9608L112.144 61.4705ZM155.397 60.7157H110.154V66.7157H155.397V60.7157ZM155.413 59.8531L153.517 61.378L157.277 66.0533L159.173 64.5284L155.413 59.8531ZM158.747 59.1907H157.293V65.1907H158.747V59.1907ZM164.695 63.1424L160.634 59.858L156.861 64.5235L160.922 67.8079L164.695 63.1424ZM166.978 62.4751H162.809V68.4751H166.978V62.4751ZM167.23 61.689L165.303 62.9865L168.653 67.9638L170.581 66.6663L167.23 61.689ZM173 61.1777H168.905V67.1777H173V61.1777ZM170 57.3815V64.1777H176V57.3815H170ZM172.882 60.3815H173V54.3815H172.882V60.3815ZM170 56.1908C170 56.3985 169.979 56.5983 169.941 56.7893L175.823 57.9737C175.939 57.395 176 56.7984 176 56.1908H170ZM170 9V56.1908H176V9H170ZM167 6C168.657 6 170 7.34315 170 9H176C176 4.02944 171.971 0 167 0V6ZM11 6H167V0H11V6ZM111.152 65.1966L111.994 64.4928L108.147 59.8887L107.304 60.5925L111.152 65.1966ZM106.462 64.4928L107.304 65.1966L111.152 60.5925L110.309 59.8887L106.462 64.4928ZM110.07 59.1907H108.386V65.1907H110.07V59.1907Z" fill="url(#paint1_linear_223_117)" mask="url(#path-1-inside-1_223_117)"/>
</g>
<defs>
<filter id="filter0_d_223_117" x="0" y="0" width="178" height="74" filterUnits="userSpaceOnUse" color-interpolation-filters="sRGB">
<feFlood flood-opacity="0" result="BackgroundImageFix"/>
<feColorMatrix in="SourceAlpha" type="matrix" values="0 0 0 0 0 0 0 0 0 0 0 0 0 0 0 0 0 0 127 0" result="hardAlpha"/>
<feOffset dy="2"/>
<feGaussianBlur stdDeviation="2.5"/>
<feComposite in2="hardAlpha" operator="out"/>
<feColorMatrix type="matrix" values="0 0 0 0 0 0 0 0 0 0 0 0 0 0 0 0 0 0 0.25 0"/>
<feBlend mode="normal" in2="BackgroundImageFix" result="effect1_dropShadow_223_117"/>
<feBlend mode="normal" in="SourceGraphic" in2="effect1_dropShadow_223_117" result="shape"/>
</filter>
<linearGradient id="paint0_linear_223_117" x1="54.4539" y1="3" x2="54.4539" y2="62.1908" gradientUnits="userSpaceOnUse">
<stop stop-color="#352D66" stop-opacity="0"/>
<stop offset="1" stop-color="#352D66"/>
</linearGradient>
<linearGradient id="paint1_linear_223_117" x1="54.4539" y1="3" x2="54.4539" y2="62.1908" gradientUnits="userSpaceOnUse">
<stop stop-color="#35258D"/>
<stop offset="1" stop-color="#00C0C4"/>
</linearGradient>
</defs>
</svg>
