<svg width="319" height="188" viewBox="0 0 319 188" fill="none" xmlns="http://www.w3.org/2000/svg">
<path d="M277.265 185.235C276.185 185.235 275.138 185.082 274.125 184.775C273.125 184.469 272.332 184.062 271.745 183.555L272.645 181.535C273.218 181.989 273.918 182.362 274.745 182.655C275.585 182.935 276.425 183.075 277.265 183.075C278.305 183.075 279.078 182.909 279.585 182.575C280.105 182.242 280.365 181.802 280.365 181.255C280.365 180.855 280.218 180.529 279.925 180.275C279.645 180.009 279.285 179.802 278.845 179.655C278.405 179.509 277.805 179.342 277.045 179.155C275.978 178.902 275.112 178.649 274.445 178.395C273.792 178.142 273.225 177.749 272.745 177.215C272.278 176.669 272.045 175.935 272.045 175.015C272.045 174.242 272.252 173.542 272.665 172.915C273.092 172.275 273.725 171.769 274.565 171.395C275.418 171.022 276.458 170.835 277.685 170.835C278.538 170.835 279.378 170.942 280.205 171.155C281.032 171.369 281.745 171.675 282.345 172.075L281.525 174.095C280.912 173.735 280.272 173.462 279.605 173.275C278.938 173.089 278.292 172.995 277.665 172.995C276.638 172.995 275.872 173.169 275.365 173.515C274.872 173.862 274.625 174.322 274.625 174.895C274.625 175.295 274.765 175.622 275.045 175.875C275.338 176.129 275.705 176.329 276.145 176.475C276.585 176.622 277.185 176.789 277.945 176.975C278.985 177.215 279.838 177.469 280.505 177.735C281.172 177.989 281.738 178.382 282.205 178.915C282.685 179.449 282.925 180.169 282.925 181.075C282.925 181.849 282.712 182.549 282.285 183.175C281.872 183.802 281.238 184.302 280.385 184.675C279.532 185.049 278.492 185.235 277.265 185.235Z" fill="#503CC0"/>
<path d="M258.536 167.699H256.536V169.699V181.009H34.0424L2 156.239V2H284.958L317 26.7695V181.009H300.15V169.699V167.699H298.15H258.536Z" fill="url(#paint0_linear_0_1243)" stroke="url(#paint1_linear_0_1243)" stroke-width="4"/>
<defs>
<linearGradient id="paint0_linear_0_1243" x1="160.542" y1="183.009" x2="159.879" y2="-0.00137707" gradientUnits="userSpaceOnUse">
<stop stop-color="#3E386C"/>
<stop offset="1" stop-color="#5B5682" stop-opacity="0"/>
</linearGradient>
<linearGradient id="paint1_linear_0_1243" x1="159.5" y1="91.5044" x2="159.5" y2="0" gradientUnits="userSpaceOnUse">
<stop stop-color="#00C0C4"/>
<stop offset="1" stop-color="#35258D"/>
</linearGradient>
</defs>
</svg>
